<mxfile host="app.diagrams.net" agent="Mozilla/5.0 (Windows NT 10.0; Win64; x64) AppleWebKit/537.36 (KHTML, like Gecko) Chrome/136.0.0.0 Safari/537.36 Edg/136.0.0.0" version="27.1.1">
  <diagram name="Page-1" id="v7tMsLkr4FVIToXn0jBY">
    <mxGraphModel dx="2441" dy="1931" grid="1" gridSize="10" guides="1" tooltips="1" connect="1" arrows="1" fold="1" page="1" pageScale="1" pageWidth="850" pageHeight="1100" math="0" shadow="0">
      <root>
        <mxCell id="0" />
        <mxCell id="1" parent="0" />
        <mxCell id="84sB6DKWZIwG1NnqUY4s-5" style="edgeStyle=none;rounded=0;orthogonalLoop=1;jettySize=auto;html=1;exitX=0.5;exitY=1;exitDx=0;exitDy=0;entryX=0.5;entryY=0;entryDx=0;entryDy=0;" edge="1" parent="1" source="84sB6DKWZIwG1NnqUY4s-1" target="84sB6DKWZIwG1NnqUY4s-2">
          <mxGeometry relative="1" as="geometry" />
        </mxCell>
        <mxCell id="84sB6DKWZIwG1NnqUY4s-1" value="Fighter" style="rounded=0;whiteSpace=wrap;html=1;" vertex="1" parent="1">
          <mxGeometry x="140" y="-70" width="120" height="50" as="geometry" />
        </mxCell>
        <mxCell id="84sB6DKWZIwG1NnqUY4s-7" style="edgeStyle=none;rounded=0;orthogonalLoop=1;jettySize=auto;html=1;exitX=0.5;exitY=1;exitDx=0;exitDy=0;entryX=0.5;entryY=0;entryDx=0;entryDy=0;" edge="1" parent="1" source="84sB6DKWZIwG1NnqUY4s-2" target="84sB6DKWZIwG1NnqUY4s-6">
          <mxGeometry relative="1" as="geometry" />
        </mxCell>
        <mxCell id="84sB6DKWZIwG1NnqUY4s-2" value="Enemy" style="rounded=0;whiteSpace=wrap;html=1;" vertex="1" parent="1">
          <mxGeometry x="-10" y="120" width="120" height="60" as="geometry" />
        </mxCell>
        <mxCell id="84sB6DKWZIwG1NnqUY4s-47" style="edgeStyle=orthogonalEdgeStyle;rounded=0;orthogonalLoop=1;jettySize=auto;html=1;exitX=1;exitY=0.5;exitDx=0;exitDy=0;entryX=1;entryY=0.75;entryDx=0;entryDy=0;" edge="1" parent="1" source="84sB6DKWZIwG1NnqUY4s-6" target="84sB6DKWZIwG1NnqUY4s-29">
          <mxGeometry relative="1" as="geometry" />
        </mxCell>
        <mxCell id="84sB6DKWZIwG1NnqUY4s-6" value="Fight" style="rounded=0;whiteSpace=wrap;html=1;" vertex="1" parent="1">
          <mxGeometry x="200" y="260" width="120" height="60" as="geometry" />
        </mxCell>
        <mxCell id="84sB6DKWZIwG1NnqUY4s-14" style="edgeStyle=none;rounded=0;orthogonalLoop=1;jettySize=auto;html=1;exitX=0.5;exitY=1;exitDx=0;exitDy=0;" edge="1" parent="1" source="84sB6DKWZIwG1NnqUY4s-9" target="84sB6DKWZIwG1NnqUY4s-13">
          <mxGeometry relative="1" as="geometry" />
        </mxCell>
        <mxCell id="84sB6DKWZIwG1NnqUY4s-9" value="Health bar&amp;nbsp;" style="rounded=0;whiteSpace=wrap;html=1;" vertex="1" parent="1">
          <mxGeometry x="20" y="430" width="120" height="50" as="geometry" />
        </mxCell>
        <mxCell id="84sB6DKWZIwG1NnqUY4s-12" style="edgeStyle=none;rounded=0;orthogonalLoop=1;jettySize=auto;html=1;exitX=0.5;exitY=1;exitDx=0;exitDy=0;entryX=0.643;entryY=0.02;entryDx=0;entryDy=0;entryPerimeter=0;" edge="1" parent="1" source="84sB6DKWZIwG1NnqUY4s-6" target="84sB6DKWZIwG1NnqUY4s-9">
          <mxGeometry relative="1" as="geometry" />
        </mxCell>
        <mxCell id="84sB6DKWZIwG1NnqUY4s-19" style="edgeStyle=none;rounded=0;orthogonalLoop=1;jettySize=auto;html=1;exitX=1;exitY=0.5;exitDx=0;exitDy=0;entryX=0;entryY=1;entryDx=0;entryDy=0;" edge="1" parent="1" source="84sB6DKWZIwG1NnqUY4s-13" target="84sB6DKWZIwG1NnqUY4s-15">
          <mxGeometry relative="1" as="geometry" />
        </mxCell>
        <mxCell id="84sB6DKWZIwG1NnqUY4s-13" value="&lt;div&gt;Fighter dead&lt;/div&gt;" style="rounded=0;whiteSpace=wrap;html=1;" vertex="1" parent="1">
          <mxGeometry x="-10" y="590" width="120" height="60" as="geometry" />
        </mxCell>
        <mxCell id="84sB6DKWZIwG1NnqUY4s-15" value="Play again&lt;div&gt;&lt;br&gt;&lt;/div&gt;" style="rounded=0;whiteSpace=wrap;html=1;" vertex="1" parent="1">
          <mxGeometry x="300" y="400" width="120" height="60" as="geometry" />
        </mxCell>
        <mxCell id="84sB6DKWZIwG1NnqUY4s-16" style="edgeStyle=none;rounded=0;orthogonalLoop=1;jettySize=auto;html=1;exitX=0.5;exitY=1;exitDx=0;exitDy=0;" edge="1" parent="1" source="84sB6DKWZIwG1NnqUY4s-15" target="84sB6DKWZIwG1NnqUY4s-15">
          <mxGeometry relative="1" as="geometry" />
        </mxCell>
        <mxCell id="84sB6DKWZIwG1NnqUY4s-17" style="edgeStyle=none;rounded=0;orthogonalLoop=1;jettySize=auto;html=1;exitX=0.75;exitY=1;exitDx=0;exitDy=0;" edge="1" parent="1" source="84sB6DKWZIwG1NnqUY4s-15" target="84sB6DKWZIwG1NnqUY4s-15">
          <mxGeometry relative="1" as="geometry" />
        </mxCell>
        <mxCell id="84sB6DKWZIwG1NnqUY4s-21" value="" style="shape=image;verticalLabelPosition=bottom;labelBackgroundColor=default;verticalAlign=top;aspect=fixed;imageAspect=0;image=data:image/png,iVBORw0KGgoAAAANSUhEUgAAAQIAAABkCAYAAABtlT6jAAAAAXNSR0IArs4c6QAAFGZJREFUeF7tXXtQVEe6nycIEpPadUXqaiIJEaLrGhOJdcX1FQy4oTZms0p4hGcgavZq1GvVdVO38sfNFhVjNFmjUWSQx8AAo4AgAWQk6LKzRrgqItZFhEFNCcRXiTyd161vlnY7JwfmzHBmOMx8UzU1j9P9dffv+/rXX3/dp49YhC9EABFwewTEbo8AAoAIIAIiJAI0AkQAEUAiQBtABBABERIBGgEigAggEaANIAKIgAiJAI0AEUAEkAjQBhABRAAQwFUDtANEABFAIkAbQAQQAfQI0AYQAUQApwZoA4gAIoAxArQBRAARsCCAwUI0BEQAEUAiQBtABBAB9AjQBhABRACnBmgDiAAigDECtAFEABHAYCHaACKACPwTAVw1QEtABBABJAK0AUQAEUCPAG0AEUAEcGqANoAIIAIYI0AbQAQQAQwWog0gAogArhqgDSACiMAIArh8iKaACCACuHyINoAIIAK4fIg2gAggArh8iDaACCACuHyINoAIIAK4fIg2gAggArh8iDaACCACuHyINoAIIAIEAdxHgLaACCACuI8AbQARQARwHwHaACKACOA+AmHYwO3bt73VanXy8ePH3zl79uxKYdQKa+FOCGCMYAK1XVFREZ6ZmZlQXV29oa+vT7x06dIGrVb72gRWya2K7unp8a2vr1/S0dExp7Oz84Xu7u7nr1+/7n/jxo3nZDKZyM/P70ZAQED7s88+2+7v798RFBSkCwwMPO3v7z/kakAhEThZoy0tLQFZWVnJxcXFCe3t7TPB4AwGg2jKlCmil156qenixYsvO7lKblfc+fPngzMyMhILCwvfe/jwoY9IJDKDdywWi0VmM3z950sqlYqMRiNcsPyGa97e3qLw8PCCDz74IDMsLKzGVcBDInCCJs1ms0SpVMbv378/6cKFCyEGg8GCu0QiEZlMpic1WLhwYUtTU9OvnVAltywiPz9/Q0FBQUJZWVk4W8dnA4UmB0IMkA4IYcaMGTcSEhJyIyIi8hYvXvx/kxlUJAIHaq+mpmaZSqVKKioqerevr8/rqaeeEj169MhSIngAQ0M/9TAXLFhwrbm5OdCBVXJL0V1dXb9KSUnJrKioeNNsNlts3sfHR9TX12cVD7rzMxPL5XKRXq8XPf300w8///zznampqUesChRoAiQCnhXT0dHhW1hYmJSenh5/+/btucPDwz9zOUmRTI9g3rx5HVevXn2B5yq5tbhz5869un79+mPd3d1zoNMy3X8u4DDz0HqDqR14dfCOiYnJzcvLi+MiU2hpkAh40khhYeEGpVKZUFVVFQ4GJ5VKxTC/ZL48PDxEjx8/tvxNf4ffgYGBN1tbW5/jqUpuL6akpGTd22+/XQzTABjZoUNDPAZe8B06NJuOmMAx08JvQg4kpkA8vICAgA6tVrtwxowZ1t0NAWkIiWAcytBqtYtUKlVydnZ2TG9v79Nk3kkMjcz/weCg0w8PD1sCTmBE4FYSQiBG5e/vf1un0/3bOKqEWUcQiI2NzVUqlTEymcxi44QA4Ds9inMBjHR8Op4D+UCv8CL/k3QSicR85syZV0JCQi5xkS+ENEgENmrhxx9/9CkoKEgqKSlJ/O67714mowV0cDAMYnAwAoGBMEcdMjIRd5IYFPyeNWvWjz/88IOvjVXC5AwEtm/f/tf9+/f/B+iCXgWgvTDQC62v0UCkpwGjEQJZ+aF1CWRw//79Xz7zzDMPJoOCkAg4aqmsrGxtZmZmYmVl5R9hZIfR39PT0+Ja0u4mGB4diCLBJviEN/EC2IzHz8/vfldX1y85VgmTsSCg0WjWhIaGnqIvQWcGvYC+IEDLnJKNBSSTCIgspndAiJ8mixdffPHatWvXJkXwF4lgDCu4evXqi3l5eUkKhSLuzp07fhBxBgNgCziRjk0bDiEB2oWk16SJHJLH19f3UU9PzzTs4fYjMH369Nv37t3zA31ArIYZkKUxB3JgegxsJdM6Y14nxEDLIWWA/uPi4o4ePXo0yf4WOScnEgEDZ7PZLFepVLEHDx6Mr6+vX+6sbdhgUD4+PkO9vb1ezlG965Wybt26vIqKimgyJRhr6c9ZrQdC2rJly2d79+79L2eVaU85SAQjqNXV1f0WmLu0tDTq4cOHnvA37b7bA64teWAUmTp16uO+vj5L2fiyDQHw2lJTU7NBZyNTN9sEOCg18Q5qa2uXrV69+u8OKmbcYt2aCHQ63UylUplYUlISf+HChbkw+hNXDxTInAeOG20rAry9vQ0DAwNyR5fjivKXL19ed/bs2RXQNtAd7Pzr7+8XRFPBM0lOTk5PT0//QBAVYqmEWxIBrPlnZGTE19bWrjUajU8woD0AWwJK41EuHW/w9PQ0DQ8PS8cjzx3zgjf3+uuvnyExHIKBPZuH+MYP6gBBSk9Pz6GWlpZZs2bNusd3GXzIcxsiaGxsfOXgwYOw7Pdeb2/vNBjtIcDjTPefTWG0scrlcpNer0cisNGyo6Ojs/Pz8y07+giBA64wEtP7B2wUy2tysLPPPvts644dO/7Kq2CehLk0EZA1f9jxd/78+UXM4BEd6ScRZEgD30dbHeAJ9ydi6Ij0SP1cWid84wdbugMDA7v0er1lWkemc2z3cvBdNhd54A3AkjHYVHBw8IWGhoZXueRzdhqXNLra2trfHTp0KFGtVr8D7iLdudnIgN7cM9rdZo5UDClzJC4hEYvF/7oX1pEFu4DsXbt2/SUtLe3PhFDpdX7m0uFENZdeRtZoNCtXr159ZqLqMlq5LkMETU1NgXl5edD543Q6nR8JGpFNJEwArMUAnDm/JAYLBGAymTzFYrFeaIbCd33g1mxYmOns7JRMnTpVJpPJpAMDA7LHjx/LTCaTh8lkkhuNRtnw8LDcZDKR/6V6vV5mMBgsb5PJJP7oo48Ot7a2/uRGLVvuI+C7XUx5tNcJ1w4fPpyUkpJy1NHl2ip/UhOB2WyWwbJRTk5OQn19/W9pd14oo4E1hdD19PDwMJ86dWqJl5cX3JUEHUEyODgoE4vFcjB86BjQUeATOofRaJQODw/LYO8DxBbgf0g30lmk0JlGOpYlrV6vt/w2GAzQuaSA3+DgoBw+RzqW5brRaLSUB/+DfJAL+YlsuA6/4frQ0JAlncFggOtP6gm/TSaTZGhoSAJlwRkMkIcOzo6TbInXJGgbZrZx165dn6alpf23Nbtw9nVBgzgaGKdPn16uUCiSjx07FgdzL7KDDEAnd5NZG/GdDfRY5TGnIyRGQbwa+BxtB9xYu94gH5kW0TKYu+DGkm8tvzUcSX6uu/isyZuM12n9xsXFqXJycqKF1o5JQwSw5p+bm5uUm5ub2NbWFsAEkrmNdyL2AdirXGIoMI2BzTB0zICWSTo9+YRrbLfR0te5bKEdqwyueynY6kYTMymDrttYBGQvlkLMR3t9ixcv/t/GxsbFQqun4IkgKytrg0qlggM+1wJ45FQYMtqRZUDa0IjxT/TSIFdl0/X08vKyeDiw7MWl/iQ4RpdFd35CkOQ6GzGMRRZ8dVymHHchAWgnTQTTp09/ePfu3We42oaz0gmSCBoaGhbBnX4qlSq+v79/GlkLJgbLDAbBNABeZIow2kjpLFBtLQfcZ3hBu+h1b7ZOTtKRMpgjtr0dl5mP/GbzCNg8Dlvy24rPZE9PEwHseBwYGBBcvxNMhdra2qadOHEiHs74a2lpeZl5np8th0lAWiANLqfPCMnI6CkBH1Ob0YJxXKcObPltIZpxBgOFpBre6jJz5sy73d3dv+JNIE+CJpwI4Gz/I0eOJFRWVkYybxaBkRJG+8HBwSfNJaMn/EGfDEMfRUWfDMR1jssTnjaLgdGCBNTAG6CnPvToby1YOJrrb63jWgs2WuvM1vKzAcKViGwGU8AZCI6LFi26evHixflCq+qEEgHc75+bmxt18uTJDc3NzfNpo2IeCEHuLycAUmvvP4uogxw+RlRnKYv2BCZy27Oj5/HWSMVZeDuzHNJmYq+hoaF1Go1mlTPrwKWsCSUCuoLwYA+lUhlbXFwcqdPpZrGNhvQ+ctJhyK5AZtxgrMbTOw25gOToNDRxsR2kAeXbGv0ndbbmETijbcwybGkLl/qzeSVCIR0myUdFRalUKhUuH3IxvHPnzi3LysqKLikpiezp6fkF5GFG0JlMSxs+vWpApgZs69hCOLiCxoPsj7fXo7FnRCdTLYIZ85NedWBeg7pb22dgbRpA56cJj5RFB0zZCIRMpcggwXZiEBebc2Qaerq3devWfV999dV2R5Znj2zBeASjVb68vPyNoqKiGCAFcmgHGTUJwLD+Dh0eVg2IcY61vk4b2UTHEOh96CN1MY+QnBjax3YApz2KHi0PlA94AtFCeXAHpFwu18tkMr1EIjFIpVKjVCrVw9vDw8Mgl8uNcF0ulxvEYrFBIpEYYUs0/Ofh4QH5LNdJHkgP16n8BplMBm+SBs58J3lBvuUN10E+lAmfJI+Hh4cR/oO6yeXyxwcOHNh08uTJd6B9bMfE8YmVPbJobwUwVigUKfHx8Rn2yHJkHsETAd14tVr9B7VaHQ1PDR5tRYD2HEgno91EcsikLe6pIxXAkG3+5JNP/jJ79uxr0AGhY4Hhjxg9dBzoEEboFNCxoMNAR4SOAZ3Jy8vLch3SwTWDwWCcMmWKEf6H73q93ujn5wfPWLN0Lie2y2FF1dTUvBkWFnaS7ajxiSZ52ksFkjUajUaDweAhFov/9Zw7hyFjm+BJRQSkabC3PScn510ghW+//day0YjN9SduLXwCcbAdMGkbXPynZkwDzN9///1rS5YsaeS/JNeVOH/+/PM3b94MhsfJkd2Z0FouG7KcicrGjRszDh06lOLMMrmWNSmJgG7cnTt3nlKr1VH5+fnRjY2NK2D/Ab2USNLSW5DHmj5wBY7PdDQZ1NXVLV25cuU/+JTv6rIOHDjwpw8//HA/tFMoQUIac/AGwDvRaDTBq1atEiTJT3oioAHv7Oz0y8/PjyooKIhpbW19BfYl0CMEfSOSUAKFzFFLo9EsDw0N/Zurd14+2wcH0CxcuLC9u7t7Bnh9tqwg8VkPNlkkbrFy5crTdXV1oY4uz175LkUENAjNzc0vwNShqKgo+vr160HMvftCIQIygpH61NTUrFqzZk2dvQp113w7duzY88UXX+ygSYC5OWuisAHdZmRkxCUmJuZOVB2sleuyREA3XKvVLiguLo4pLS2NIXsUIGZAOh8ZlZlBRToNLQ/SkbzjDTrSZcL38vLyNRERERprisPrP0Xg8uXLQStWrKh/8OCB5UlRxBNkI/zRlp7twZSM+GxBaiIvJSXlyJEjR1Ltke+sPG5BBDSYGo3m32H6oNFoom/evPnk8WJk/RmmD7AMSW9fJjEF+kgzvhTEJILS0tK1b731VhVf8t1JDmzUiY6OzmMeWgoY0ztT+T6rgiYWKJvc/AY2NWfOnI62trZ5YrHY8pw8ob7cjghoRVRWVr5eWFgYBTc7PXjwQEZfIwEeepmSBBzJ2jAfNzUxiaCkpOT369atKxeqwQi9Xtu2bdu7b9++bSPLdT97NsXI3X+WPRN87dEgG8HY9jE0NDQsCA4OviJ03NyaCGjllJWVvaVUKqNPnDixATonrD7QIwnbbj8+jkNjEkFBQcHbkZGRpUI3HCHXb+nSpWe0Wu1yQtjE22OeTM23Z8A8WOabb77ZuGnTpsNCxorUDYmAoSWz2SzNzs6GPQpRVVVVb7KN+jCaQGyAjzPzmUSQm5u7PjY29thkMB4h19Hb2/vR0NCQD1lFABIgT6nm814T+vZ4Ok6wdu3a6srKynAhY0TXDYlgDE3du3dvWnFx8buwHAnnJNJBKPjOx4YVJhFkZ2dHxcXFFUwWAxJyPcPCwr4lJ1uxHWPP55kVxBbAy0hNTd3z9ddf7xQyNsy6IRFw1BY8SKOkpCQqJycn9vLly6+CEfG9BAkubEZGxntJSUlKjtXCZFYQyMzMjEpOTs4n0wS+tx1DxwdbgACht7e3ac+ePfGbN2+edPpDIrCjK7W1tb0AQUbwFK5cuRJkhwjWLEAE6enpCe+//342XzJRjkik1WoXbd68+XBzc3Mwmerx4c3R2IaEhJzbvXv3ppCQkEuTEXMkgnFq7dKlS/Nh2Qo2Lul0ujkgjnb3SUCRGVikA1X0NYVC8X5ycrJinNXC7AwEdDrdlN27d+/Oz89P7O3ttcQOngTKxOKf3IdC38pMdMm2WxHSBQUFXUlOTs7evn37l5P5Ri4kAh67TENDw2vZ2dlwd+S7XV1dvmRnG/kkxgRGCC4quSeCfIfRau/evRvh6T08VgtFUQh0d3dPVSgUG4uKihKampp+TZ+XAMlogqCfW0iDCPoMDw+viIyMzHKVwC4SgYO6SVVV1arCwsLosrKyqPv3708FA6MPz4Bi6U1LxAD37dv3p23bth1wULVQLIVAdXX1UoVCsbm9vf03HR0dM/v7+y2HisJqEB1LmD17dk9AQECbr6+vbu7cuTffeOON0mXLlgny5iF7FYxEYC9yNuRTq9URx48fh41L6+FxYfB0XCAFMDb6HghwNb/88sutW7ZsEeSjs21o8qRN2tbW5mkymaYPDQ35ymSyu/PmzftBiOcH8A0wEgHfiFqRl5mZGQleQnl5+e/hOYDk6HVwUYEU0tLS/nPXrl1fOLlaWJybI4BEMEEGcOvWLa/q6uqooqKiqFOnTlluT4U56c6dO//86aefpk1QtbBYN0UAiUAAir9169Yvjh07BqQQExERUfnxxx//jwCqhVVwIwSQCASm7I6Ojueef/75GwKrFlbHxRFAInBxBWPzEAEuCCARcEEJ0yACLo4AEoGLKxibhwhwQQCJgAtKmAYRcHEEkAhcXMHYPESACwJIBFxQwjSIgIsjgETg4grG5iECXBBAIuCCEqZBBFwcASQCF1cwNg8R4IIAEgEXlDANIuDiCCARuLiCsXmIABcEkAi4oIRpEAEXR+D/Aba+sfvzItDUAAAAAElFTkSuQmCC;rotation=-135;" vertex="1" parent="1">
          <mxGeometry x="450" y="540" width="77.4" height="30" as="geometry" />
        </mxCell>
        <mxCell id="84sB6DKWZIwG1NnqUY4s-22" value="" style="shape=image;verticalLabelPosition=bottom;labelBackgroundColor=default;verticalAlign=top;aspect=fixed;imageAspect=0;image=data:image/png,iVBORw0KGgoAAAANSUhEUgAAANsAAABtCAYAAAAoEBQoAAAAAXNSR0IArs4c6QAAFdJJREFUeF7tXQtUk1e2BrRaBbW2tVJRUQLLSqUKVpFBRaWCz4DIIyHUoEGQIL5GW23xQa1tZ3TJzMWEhyLgI1pzZ6pznWHEt6iMLq7Lq4s714ojl9Fa9c5SL+ID1Ny7I7vr9J9EAvyPhOx/LVZC/vOfvc+3z3ce++xzflcXuggBQkAUBFxFkUJCCAFCwIXIRpWAEBAJASKbSECTGEKAyEZ1gBAQCQEim0hAkxhCgMhGdYAQEAkBIptIQJMYQoDIRnWAEBAJASKbSECTGEKAyEZ1gBAQCQEim0hAkxhCgMhGdYAQEAkBIptIQJMYQoDIRnWAEBAJASKbSECTGEKAyEZ1gBAQCQEim0hAkxhCgMhGdYAQEAkBIptIQJMYQoDIRnWAEBAJASKbSECTGEKAyEZ1gBAQCQEim0hAkxhCgMhGdYAQEAkBIptIQJMYQoDIRnWAEBAJASKbSECTGEKAyEZ1gBAQCQEim0hACyEmLy9v3ogRIy6GhIRcECJ/ypNfBIhs/OIpam5bt26dO3/+/O0BAQGXExISdiUkJBj8/PxuiKoECbMZAYcgW3V1dZfHjx8Peeutt+4OHjz4R5tL18ET5ubmzl22bNn2pqYmc0nd3NxcQkNDTyiVyt3p6eklrq6uzzo4BA5VPLsj25YtW1IuXbo0oq6ubvAPP/zg9/333/s9f/7cBStU586dXby8vOpkMtnV/v37X/f29v67QqEwvP/++zUOhTwPyur1+rmZmZnbAR9XV1cXk8nk0qVLF5fGxkaX1157zUUul3+rVqv3yOXyAzyIoyzaiYBdkK2iomL4gQMH5uzatWvO7du334ZKw72g1Ybf8R5ULiAeVDT4LTExcQ8Mo+Ry+cF2YuIwj8OcTavVFoHCgAXbw7148cJMOPjN09PzcVxcXJFKpdo9ZsyYvzhMATuYopKSrbS0NMFoNM45ePDgNC6ur7/+usuTJ0/MQyP2YgmHQyeoWJAOPkNDQ6umTZu297PPPvuNq6vr8w5mr58VR6fTaTIyMrbBj506dTKXH/ABkj179sz8HXs8xGfYsGE1SqWyZMaMGYbhw4df78j42FvZJCNbZmZmrl6vXwg9E7TKUCmwZUaiWQML0sJlqQfEYVRISEhlTk5O5pgxY/7d3kDnSx+9Xp+SmZm5FTCEC3syJB8QDDAFfAErHG7CfcBw/PjxlSqVqmTChAmlfn5+T/nSi/KxjIAkZPvoo4+OHDlyJByNjqTx8PBwefjwoVlTdpjITQctOHthJevevbvLo0ePzLfge1NTU6NOp0tLTU0t6YgVQKfTzc/IyCgEMkFP1tLFkhEJiUSNj483JiUl7ab5XUsotv2+qGSrqqoaGBISUtvU1OSKwxoc5kAR2DmYLRUIhk5AVC75sHdDWFauXJnzzTffLGs7TPb5pF6vT9VqtQUsiXCUACQCXLp27ery9Ok/d1pswwbPwwW9YO/evR9pNJrt0dHRu8eOHUvzOx5NLxrZsrKyPt2wYcPXJpPJLJMlBBAPSAcVhOsIwV4N08D/UImQYOyQEtIAAaHSIJkRq7CwsPKTJ09G8oid5Fnl5eWlabXafHZuxioFWOAwHb4D6bBxw3tsepwfI7YBAQH/mZCQsHv69OmGwMDAWskL7OAKiEK2kydPBoSFhf2Hm5ubK9fBgT0YtK7YGiNRuMa3hrW14RESF54DuevXr1+zevXq9Q5us5/UB7JlZGTko4MIGyLAlG2Q8AHEGokGxAOMcCjJDi1ZMsKQPDAw8HhycvLulJQUWL/r0I4noeqHKGR744036u/fv+/BNS77P7cnYgvMDi/hd5aMUKm4HjccOrF54vfDhw9PmTx58iGhABUzXyBbenp6vtAyWeLBiEQul+9RKpV7Z8+e/QehZXek/AUn29SpU/9YVlY2jZ2bsb0YgokGBWOi1wwm/ezcjtsKs8NR7jwNW2kgI+QNeaEOV65cGTpkyJD/cnRDikU2dgiPw1LArlevXg1KpXL77NmzDRMnTqT5XQsVSlCyrV+/fsXq1at/DcZConDd9UA8uGdpEu/l5VUfEBBwbuTIkeeHDh16+unTp/3Pnz8fUlFRMb6mpkYGkRJsT4ceTFxCQHLh8Al70pCQkLP79u2b3K9fv5euSwe9xCAb20giTOyIARoyuIYOHfrXpKQkAzhW3nvvPVq/s1CnBCNbVVXV26NHj76LhoEehu19wIjY46BeSIbFixdvSk5OLvrggw+s9j5Xr17t/9133ylWrly5EWRAz8XO3SAv+MNIClzkBVnwu0ajyd+2bVu6g/LMrDa6/sUoA3e+x8pkyQdrpMHBwadgGSElJaXY1dX1ZeAmXS6CkW358uVfbNq0aTWLMRvlgMZDJwbc8/DwaNi/f//UCRMmVNhqm9OnT4+ByPeampqh2KPBnA16PW4vyhLQ19f34dWrV99w5Mk+LGprtdqttmLVlnRc5xMSi/V04hof6w0GWUC8WbNm7YuLizPExMQ4fXymYGQbNGhQ3a1btwbA8BCMAEaD71xnB1aA+Pj43fv27UtqS4WAZ5YvX/5Vbm7uKnY4Cj0pEA5ICPLhO7v4W1BQkJaWllbYVplSPycG2bhlRPKxvRnYFP7HYb2lXs/Ly6shOjq6CDyao0aNOi81dlLIF4RsRUVFGo1G81PMHuta5vZ0cC86OvrE/v37J7YXAIPBEK1Sqb6DHgx6t8ePH5uzhO9AOFw/Qm/lpEmTKo4dOza+vXKleh4XtYWUb2l5AOThsgw0YFzHFXfJBed1uI7q7+9/OTExEeZ3pf7+/reE1N+e8haEbCEhIScrKyvHc4eNuLCKxoLK7+7u7tLQ0MCbHitWrNi4cePG5WyFYCNM2MgUqEg3btwY6OXl9Xd7Moqtuuj1+gVarTbP1vRtTccuteD8mF2rg3xxyM72eBhwYO0+pA0PDz8MC+cpKSmlbdXPUZ7jrZJjgU+ePPmLsLCwMywA7Lif68natGnToqVLl+byCVhwcPC58+fPj7YUqMyVk52dvW7t2rXZfMoXK6+CgoL0tLQ0vVjyhJCDdaNTp04m6O1gGSE6OvpPQsiSOk/eyVZSUqJKTk7eBQVj3cbsOhrMm6C3mTNnzs4dO3bM4RuEo0eP/iI8PPzMqxbKUWa3bt1cYKvJo0ePILrZrXPnzoCJW1NTU6dOnTq5NYeXwT4fiH5xc33ZXFvDzQSXq6sr5PXTn8lket78G2zUg/vmDXuQtlkP+PxZns1yzLfd3EAN83YZ0/Pnz02AX/fu3U21tbX979696843flLnN3DgwP+JiYnZFRsbC/GZVVLrw5d83sm2Zs2aVV988cVXqCAuiHLnbdCibdu2TaFWq7/lqzBsPoMHD667fv36gJbyflXAs6U1ppbyE/M+11Mopmy+ZCHGuAePO//z9/e/qFaroccr9fX1vcOXXCny4Z1sCxYsyM/Pz09DENkJNjcOEo488PX1FeQ4A7lc/ueDBw9GcncEcEHG3g8jVzB6BR0A1pw7YhkL9WPXuWCUYMnzJ5ZOQshh54WQP+u9xuifCRMmHJo3b57h448/3iGEDkLnyTvZIiIiysvLyydzh3Dsuhrc69at2536+vq+QhUwJSXlt0VFRYtamrdZi4K3FBUvlK625MvubmgeWv7T1iJb8rHXNNgowye7PGPJDh4eHs+io6MNSqVyz/Tp0/9sr2Xi6sU72by8vK7dvHnTBysERvlzh2RxcXEHjUbjTKGAys/P1yxYsMC8/NDSZWkfHTYWrEetpXyEuI9RMJA3uzfNUiyoEPKFztPankTuArmFdOb57jvvvHMzPj5+p1qt3jZq1Ki/Ca1ve/LnnWzu7u6mhoYGs07caHwMQIZ74AVcvXq1YF7AsrKyUTNmzDhv6zAQo0vQtQ2f+L09ALf3WbZlx8gYxLWlXru9ssV8nm2M2S1C3CAIdnMsOIxw8zB8Dw0N3R8bG7t3yZIlRjF1t1UW72Tr169fze3bt2Xs8WqoDC52AkBTp049VFZWNsVWRVubzta4QUsOEmutbWt14Cs9u16JIwZ2axFfcqTIBxsTNmwPh5HsPSAjp+E092wymeyviYmJO2fNmlUUFBR0V4oy2CqTd7JNnDjx0PHjxyPYSsyt0OBu79q16//ev3+/l62KtjbdwoULc7ds2bIQnmMdM+xxbzjEtbaZ0palg9bq1dr0lhxNrc1D6vTc+Sb3f+5mV7ZRZgmHzq4333zzXlxc3B6FQrHTkbb28E42jUaj2759u5Yd4lhzQly+fHl4QEDAJSEqw7hx445UVlaGQyvJkh29jGg49uQpHPrCfIgN7xJCP1vz5FZMbi9naz72kI6LPTvVwB4bvZBsD97cYJpmzpxpVKlUsP72b/ZQntbqwDvZsrOzV6xdu/bXlhSBig0XbofR6XSpqampgkStv/vuu7du3brlCfLYYSFbebnRLEAyjKdE/aV2kLCnHLOVk9tItNbwYqVn55xsj8WS6VUNSGho6ClwgCxevNgmZ5dY5WqLHN7JVlhYGJ+amvotes7YbS1cBceNG3e6oqJiXFsUf9UzxcXFMampqb/DIaOltOhq7tu3L2x8vNjY2AhhGi8aGxtNPXr0cHv27Jk5auTFixfmTwjkaP5EzNhIEvyOnxBpYo4+aZ7Ew/wCIkrg7A78xO/mSBMrUSUQLWLq2rWrOTIFvkPgSXMUyrPa2lrZjRs3+vGNH5/5WQsMgN+RZOxaKDR4Pj4+NbGxsSUxMTHFQUFBP/Cpj5R58U62U6dOjQ4LCzvHDiO5Dge2R8nKytrw5ZdfZvEJQu/evR88ePCgp6XTk1EvGK7AwvC6deuy1/3/xad8sfIqKSmZm5ycvF0see2R01I0Tp8+fZ5PmzatUK1Wl06aNOlce2TZ67O8kw0KOnbs2GOnT5+eyB5HgMet4fABFy+b15G68LWjNz4+vsRoNKq5ZGe9o6xD5Nq1a4N8fHz+214N9Cq9cnJykpcuXVrsSLoD9kg86NFmzZq1PzExsTQ2Nna/I5WjLboKQjadTjcnMzOzFA/bsXSQKtvSwZkglZWVoW0pAPvM1q1bY+bPn/876DmB6BjSxI1CQNnh4eHHjx49Oqm9cqV6vqCgQJ2WlmbXpz1znSJgi5EjR15UqVTbFi1alNccoC0VhKLKFYRsUAJvb++/wWuf2B6GDdnCdROs+ImJiTsMBoO6raX/9NNP1+fk5GQBwVjvJ+SH6zNsVAgYPTc3NzU9PV0QB01by9Ga5xyBbGgLPz+/+wqFYotCoSh1xtd7gV0FI9vnn3++ZsOGDdkINvfMEQxDYudzPXv2/IfRaJRHRkaetbXSweumli1bVlJVVTWCzROHjehNxEk4Rsr37dv33u3bt9+0VY49ptPr9WqtVtvuno27vIBl5QZBw+84SuB+wj022gNwhjNIEhMTi2JiYnZERkaeskcMxdRJMLJduHDBOzg4+Dqc688aj91Gzz1tCxa74cUYn3zyya9iY2N3jh49utoaGNXV1Z7l5eVxS5cu/Rc2DXoZ8XxDjEbgvhlHq9Vu0ev1mWKCzbcsPsjGXYMEErFeXNaZxWKIa5FgT25IWVhY2J9SU1NhHraP7zI7cn6CkQ1Ayc7O/uXatWs3cSME0O3Lnspk6egCMPSgQYOuBAYGXvX19b107969t6uqqobV1tYOq6+v74ln+uMZI3ioK8Y0cltfJHdYWNjZEydOjEV3u6MaUKfTJWdkZLTbQQI4scNttA8Ov4FQuJRjaQ8d2DcoKKgmKSkpNz4+vsjT0/NlcCxdP0NAULKBpMjIyIOHDh2ajkMQ1qjwHQmAUd7s+Y7QkrKv+OXajhtOxa7psWFOOLxEedXV1b5+fn7XHL0u8EU2tA3Oo3GebWmoCGkxINrHx8dFpVL9Si6X7/7www8vOzqeQusvONmgAO7u7g8bGhrckRxs9Dr0aNzYSUuvOQLDW9s0iS0xfLIvVIRj7VgHDRDbaDRGREVFHRYaWDHyh3dqa7Xadq2zWdpJz0ansLGJkLZHjx4uUVFRpRD8GxERcVSMcnYUGaKQraysLCQqKuos6ylE4llrPS0FoLKg41YLbpQIDHOAwDgEwsk/yIPF81WrVm3oKMbjs2eztOjMjg5mzJhRHhMTUzp37lxDR8FP7HKIQjYoFJxN8vXXX3+F5ABnCDcOEXo0IIm1nbrcuR/ky31JB1tpWAfMpEmTDh87dixCbICFlMcH2dhRBAzboUGExgpeliiTyWo1Gs1vp0+fXiyTyR4IWRZnyFs0sgGYZ86cGTZ+/PhLEDOIZ/BjD8S+3BCGftyhJTs/s7Sxkw1m5Qa/LlmyZPPmzZt/2dEMygfZABMWa5lM9kyhUGxSKBR7hNqR0dHsYGt5RCUbKPXjjz+6JyQk/P7UqVMR6LjA3oj7YgwM8bK2IxnTc93X+BzcLywsTIZ4O1sBcaR0SDZuQ4QNF4ZG4S4LPH6dO2SEYOyIiAg4GtwQHh5+zJEwcCRdRScbgpOenp6Tl5e3BP/nvhcaT1Rit2XgGh08gxXK0gQf7gcHB1du3rxZGxoaetGRDNIaXcFBsnDhwu3YGMEnHglnrYFivb/wsnqlUmlISEig9bDWAN/GtJKRDfTdu3evori4WFVeXj4DF0cxQBnuW9spzV0XgrT4Eo0RI0ZciIqK2p2VlbW5jZg4zGM6nU6TkZFh3ufFvoSedQrBMB0JBmn8/f3/olard8bFxRUPGDDg5csQ6BIFAUnJhiU8c+bMCKPRqDIYDKo7d+68y6043JArS8ioVCpDVFSUIT4+/o+iIGcHQuAtNsuWLdv65MkTszY4V0Vy4XDR29v7ulKp3BUXF7dj5MiRgpzTaQdw2L0KdkE2RMlkMr1WWFioPnfu3Ii6urpBdXV1PnV1dX5NTU2d0ZEC3jNPT8+bQ4YMuQKVaMCAAXWwk9cZ33aJr4zCnh4PAYLPPn36PJ45c+ZOpVK5c/LkyaftviY6gYJ2RTZreF+7dq1XfX29T48ePf4hk8nqnMAuNhURXhm1ZMmSAvZ05ClTphxISkralZSU9K82ZUKJREPAIcgmGhoOJgiP6wsKCjqr0Wh2y+VymofZsQ2JbHZsnJZUy8vLmzdmzJhjgYGBtS2lpfvSI0Bkk94GpIGTIEBkcxJDUzGlR4DIJr0NSAMnQYDI5iSGpmJKjwCRTXobkAZOggCRzUkMTcWUHgEim/Q2IA2cBAEim5MYmoopPQJENultQBo4CQJENicxNBVTegSIbNLbgDRwEgSIbE5iaCqm9AgQ2aS3AWngJAgQ2ZzE0FRM6REgsklvA9LASRAgsjmJoamY0iNAZJPeBqSBkyBAZHMSQ1MxpUeAyCa9DUgDJ0GAyOYkhqZiSo8AkU16G5AGToIAkc1JDE3FlB4BIpv0NiANnAQBIpuTGJqKKT0CRDbpbUAaOAkCRDYnMTQVU3oEiGzS24A0cBIEiGxOYmgqpvQIENmktwFp4CQI/B8z3f4EmFO1ZAAAAABJRU5ErkJggg==;rotation=75;" vertex="1" parent="1">
          <mxGeometry x="218.33000000000004" y="75" width="80.37" height="40" as="geometry" />
        </mxCell>
        <mxCell id="84sB6DKWZIwG1NnqUY4s-23" value="" style="shape=image;verticalLabelPosition=bottom;labelBackgroundColor=default;verticalAlign=top;aspect=fixed;imageAspect=0;image=data:image/png,iVBORw0KGgoAAAANSUhEUgAAAKwAAACxCAYAAABZeVadAAAAAXNSR0IArs4c6QAAGMBJREFUeF7tnXtwFFWXwKczM+ERRCWbiJiEPA1JSHj5lbr/ULuKgrggah5YrGVZIvLyUUWxfrWUf6i1tVW6+49WWVtbfijy5QkYWSEJYpVVgEAwQBJQIYkJM0MSggl8KH5kXr11mj7zXe/cnke+zPT09Jmq1GRmuu8959xfnz59H+dKFnqRBQxkAclAspKoZAELAUsQGMoCBKyhmouEJWCJAUNZgIA1VHORsAQsMWAoCxCwhmouEpaAJQYMZQFNYGVZTj18+PA/HTly5JGurq7cuXPn/vzQQw8drampaZAkyWcoLUnYpLGAEFhZlq3vvffeq9u3b/9v0NRqtVp8Pp/FZrNZ3njjjf968803305PT7+RNFYgRQxjASGwbW1t/7x9+/b/6e7uLgRIPR6PJSUlRYEWXh9++OEbmzdv/kiSpHHDaEqCJoUFhMDu2LHjP999991/A1i9Xq+iqCRJCrR+v9+ycuXKlo8++uiZ7OzsvyaFFUgJw1hACGxNTU3Tnj17ngVYAVK73a6Ai2HBvHnzOru7ux+WJImANUxTJ4egQmDXrFnT1Nzc/Kwsy0ItCwoKBo4cOVI2Z86c35LDDKSFUSwgBHbdunWNu3fvroSQAKAFzzp16lTLrVu3lNAgNzf30rFjx0oJWKM0c/LIqRUSNNTX11dpqZmXl+f46aefiiVJupU8piBNjGABIbBr165taGhoqALvKgoLCgoKHL29vSWSJFFIYIRWTiIZhcBWVVU1NDY2Kh4WQgB8Ibx5eXnOkydPlmZmZv6aRLYgVQxgAc2QAD0sCy0Cm5ub6zx16lRZRkbGLwbQkURMIgtoAVvf0NBQzYYDrKdVPSwBm0QgGEUVIbDV1dUKsKwSACzrYTs6OubT8KxRmjl55NT0sI2NjQqwogcv8LAdHR3ls2bN+kvymII0MYIFgoCVZXn6mjVrPmtubn5apACMfN1///2Xfvzxx1wjKEgyJpcFgoB1Op3TXn/99d179+59mg0D8OELPG5hYeGl3t5eAja5WDCENiGB5TVAgAlYQ7RtUgo5UWBh4GBuUlqElEpoCxCwCd08JFzQXZ7/YnBwcPrWrVs/gxg2REhAHpZY0sUCQR6WgNWlHajSCC0QBOzw8HDali1bPtuzZ8+aEB7W2dvbmxNhHXQYWWDSLBAE7MjIyIxNmzbtCgMshQST1gRUUDQWEIYEr7322u6mpqaAh8XuLFzTVVhYSMBGY2U6dtIsoBUSgIcNDBwgsPgO82H7+vqoW2vSmoEKitQCQcBevXr1jldeeeUTHOnCgtiZWwRspOal4ybbAkHAjo6Ozly/fv0n+/bt03zoKioqcvT09JCHnezWoPLCWkA0+SWtqqpqV1NTU1A/LMaw6hKZAkmSbictoBdZIE4W0FzTVVdXF7QIEYHNyclxnjlzhubDxqmRqJq/WUAI7HPPPddYW1tbiYfxvQQAbEdHB604IJLibgEtD9tYV1cXEtjvvvuOFiHGvbmowogWIfJmgkWI7e3tBCzxE3cLTAhYWuYd93aiClULRAwsu/oAgD127Ng8SlVEHMXbAhMCNj8/33n06FECNt6tRfWJd0KEtPBsIg2wE+thAdiTJ09SLwEBFHcLTMjDQkjQ3t5OwMa9uajCiIFlTUXAEjh6WSDiVEWsgNCtRZlf9Goyc9erNdJVX1dXF8itJRrpOnv2LGV+MTc7umgvzPxSWVn5KexxoDU0m5+fD/NhafKLLk1m7kqjmg+LnhZSFV28eJEyv5ibHV20F67p2rhx46cwgRtmZ+HEbXYCN2V+0aWtqFLoXuWtAIsQEVg+txYeW1BQcKmvr488LCEUdwtEBSwtQox7+1CFnAVCxrAIKK2aJW4SxQJhH7ogduWBpUWIidJ85pMjIg+LZsFdvQsLCynzi/lYSQiNhcC+/PLLn3z++efKIkTcjIPtJYCh2f7+fkpVlBBNaC4hhMBu3LjxE0ikwcewTC+Bs6+vj4A1FysJoa0w88vmzZt3idJtIsBFRUXOnp4eAjYhmtBcQgg97IYNG3bu27fvGX4XRCZVEXlYc3GSMNqGfOiChyzc9oiNYSnzS8K0n+kECQJ2bGzszvXr1/8pVAZumktgOk4SRuGQ0wtBStazYrcWZX5JmPYznSA0gdt0TW5shScKrOPUqVPzaTdvYze+EaXXSlVUV19fX8OGA6xyeXl5jvb2dgLWiC1ucJkjBpZLpEHAGrzhjSr+hIGFvASZmZm/GlVxktuYFpgwsMeOHSuhVEXGbHQjSz1hYMnDGrnZjSs7AWvctjOl5FoDB3W1tbU1/HZHOLdg7ty58NBFMawpkdFXaU0PW1dXV4Oi4Swt/Jydne04ffo0dWvp23amrF0L2Nq6urq1PLDocQFYyPySnp5+w5RWI6V1s4Ao88uUmpqaTxsaGqr5tVwYEsDAQV9fX7EkSbd0k5wqNqUFhMu8N23atJNNVcSGBAAt5CXo7e2lvASmREZfpbVWHOzcu3dvJe9hUVRKpKFvo5m5diGwW7ZsAQ8bCljaHNnM1OioexCwg4OD07du3QqbIwf26WIXI4Ks6tadtNesjg1n1qpDAsvn1sLPhYWFjt7eXgLWrNToqLcQ2FdffVXJD0vA6tgyVLXQAloxLOQlCAUsZX4hoHSxQEhgeYmYkICA1aW5qFJhP+zmzZt3NjU1BVLGo5kIWAJGbwuIRrqmVVVVfdbU1PQMeVi9m4fqD2KQ/2J4eDgN+2EJWAIm0SxAD12J1iIkT0gLCFMVrV+/fmdzc3NQSIAlFRcXOy5cuED9sARX3C0gimFt1dXVf25qaqoCaURLvfPz8119fX3zJEm6GXeJqUJTWyCiRBp8UmPYuvPUqVO0ObKp0dFHeSGw1dXV9TAflhUJ9+wCjwvzYWkRoj4NZvZaI/KwYCR2mBa27vz2229LZ8+eTSGB2QmKs/4RA8vKBR72+PHjBGycG4uqE+yECEYRhQQ8sJRIg/DRwwIh88OKegggNICQoLe3l9Z06dFiJq9TE9ja2tpqfuI2Akwhgcmp0VH9kMBqbY6cm5vrOHHiBMWwOjacWavWfOiqr6//XbcWayAICU6cOEGZX8xKjY56h/SwIrnA60JIQMDq2GomrloztxamKhI9eEFIQCnjTUyNjqqL5hKkrF27FlLGK3MJRK/8/HzYWK6E5hLo2HImrVoE7NTKysrP2MwvEAbAn9/vV8xE+3SZlJYEUFuYW6uysnI3AMunKMLwgIBNgJYzqQgiYFOfffbZ3WwiDbQNs6aLcmuZFBi91SZg9W4Bqj8qC0wUWMr8EpWZ6eDJsgABO1mWpHLiYoGQD128BJSXIC5tQpWEsAABS3gYygIR9cMKegkoVZGhmjl5hBUBa6+srKxlBw4I2ORpcKNrEtFDFz/NsKioyNnT05NjdOVJfuNZQCuGhaHZSn5/LlSvuLjYeeHCBQLWeO1teImFMaw60vVMCGAp84vhm96YCggzv1RWVv55z549VVorDtQ9DmhNlzHb3NBSC+fDwvRCmA/LAsv+n5eX5zx58mRpZmbmr4bWnoQ3nAVCAstqg+mK4DtIVXT8+PESSqRhuPY2vMARr+niM78cPXq0ZM6cOb8Z3gKkgKEsEBJYrRgW1nRRIg1DtXPSCKuZDK6xsbEaJ2wjuDabzeL1ei2wm7fD4YAlMuRhkwYFYygSFljo2oIXLI+xWq0Wn89ngY3lenp67pckadwYapKUyWKBsMCCophqE9d1UUiQLM1vPD3CAiuKYwsKCpzt7e3z09PTbxhPZZLYyBbQeuhqaGhoqGJzEkD8CmEB/M2ZM8fV2dlZmpGR8YuRlSfZjWeBiIFF1SCOLSoqcrW0tJSnpaV5MzIyZIvF4lP/IOBNkSTpr9GaQpZlG2ypoP5pni5Jkl+WZSvUY7FYvJIkwTn0MokFtEKCxsbGxkrwsAAoeFU+A0xBQcH1a9eu+Ww2m+z3+2Xp9siCLMuyZLPZfHheODtiyOF2u1PgHHjBg53VapWwTvwe8yJ4PB55fHx8ht/vnwa9Fna7/eajjz76zY4dO/79wQcf7AxXJ/1uXAtoAbu3sbHxaQQGwgGACD7DAxgA5PF4lHf4DkBiN+7gN/EIZx6ElgWW3VOBnYTD9lpAuXgufD9v3ry+hoaGfykvL/8hXJ30uzEtEATs6OjozKVLl544d+5cCaiEXVk8hHa7XYGW7UVg+23he/jMDumKTMT39bLHiB74sC8Y5cLjU1NTLW6327J69er/gz3GJEm6LRy9ksoCQcCOjY3dWVJS0n/lypW7UVN+miHCykIbK6tgHQAoAAwhAHuRoJfFcCE3N/dGf39/hiRJ7ljJROXqZwEhsJmZmZe9Xm8aioVeDT+z3g3zbqFHRYDYz6HU42eEscei98V3NiM434MBIKvhis/tdqfRoIZ+UMWyZiGws2fPvuT1eu9E6PDWzr6D5wNIROk4J1NghJSNo/lwAOrD32fOnPnL9evX/4E87GS2QuKUJQS2uLj44ujoaCbAiEBOmTLFMj7++5FY9K7scaga63nDqcufz8a9+KAH38GDH3pwNj6G/zF0gNy1/f39hRTDhrO6MX8XPnQtWbLk3MDAQDYLB4YF4PEQHq3ZXLEyBRuaaE0unz9//rnu7u5FkiTdDnbplVQWEHrYhQsXnnM4HFnsrZbtE4X/X3rppZ1q3JiidL5Kkqx2Rclut9vm9XqVslNSlJ+Vzn1JksBF3p5Nw7zgGLvd7oG+XCgKDlWPV97hu/HxcXnGjBn+AwcOrHA4HPeJgIVQoby8/NyZM2cqaEAhqTgNKCMEtqys7Nzw8LACLN6S4SmcGZ6FzMa3e/kFL1mWlREvbuQKoVX4Zk+LBq7Vq1e3fvHFF4+rF0MgyTKWV1paev78+fPgYalbKwmZFQK7YMGCc06nUwGWHxAAgFNTU+FJHIZS4/5auXLloZaWlmXYjYUCoJzl5eXnOzs7F1JIEPemiUuFQcBevXr1jiVLlnzvcrmy8GEIb7/4npqa6ne73ZoeNpaSA7AHDhxYxoLK9l4AsF1dXeRhY9kIOpYtfOiCGNblcmXj/FceDrvd7vN4PLp42BUrVrS1tLQ8xtsML6aKigrwsASsjlDFsuogYK9du3bX/Pnzuy5fvqz0EnCxphLT6gnsE088oQDLxtYYusB3KrCLqR82ltjoV7YWsN2XL1/O4rut8HOiACuKr9WQYAmNdOkHVSxrFmV+mTF37tzvHQ6HEhKw8SEKYrPZ/B6PZ4oeDzbLly9va21tDYQEvIwVFRXnOjs7AViaSxBLcnQqWzi9EEaLcOBAFBKkpKT4fT7f3ZIkxXWJDEzyXrZsWevhw4cfYcMA9v/Fixd3nT59eoFO9qRqY2wBIbCwyLC/vz8ohmUmn/hHRkbuivcSGejfXbZsWdvhw4cf1eolWLJkSVdHRwcBG2Nw9CpeCGxOTo7D6XRm8/NZmdEu/9DQ0J3xzq0FwEJI0NbW9qgofoXvFixY0Hn27NmFehmU6o2tBYTAZmdnX3K5XDlaM7Eghh0aGtLFw7LA8pO/CdjYwpIIpUcNLEBhtVoJ2ERoPRPKMGFgXS7XzHhnL4SQ4PHHH287dOhQIIZlH7jIwyY/wYYDFkMCUe8FAUvABllA75AAhmZbW1vJwyY/m0INo/awUAo8dMEiRT1SFS1fvvwrAtaktOJEaV59tpeAX64Cx1qtVhn6YfUAdsWKFcr0QtEEbgoJkh9krYGDS/39/UHbGjEDB/LPP/8cd2AhRdFjjz3W8tVXXwWmF/IDCDTSldzQag3NXhoYGAgCFr0agAvAzpo16y/xNA8Aqw7NKjGsyMsuXry48/Tp0zRwEM+GiWNdwskvOTk5551OZ06IyS+Q9cWu0+SX1tbWVmWJjKinoKKioruzs/MPNFsrjhTFsaqQ82FDTC8EYIXeOdayr1y5svXgwYOP88u8UdaysrLzra2tf8jOzo46g2KsZafy/34LCIEtKyvrGhwcDDWBWzdgw03gVufDPiBJ0q2/3zxUQqJZQAhseXl5YAI3u9iPmcCtG7DhlsgQsImG2OTKIwQW4kBYhIhrugSLECFToC4hAXjYgwcPaq7pAmD379//QF5eHnnYyWUlIUrT9LAALD6Jwzu78kBNbakLsE8++aQCrGiZN7Omi0KChMBr8oXQXNM1NDSUxYcDmGQYBg48Hk9QBpfJFy+4RBg4aGtrU/phQT42oyEk+sjLyzt/4cIFWtMVj8bQoQ4hsKWlpV3Dw8PKBG54paWlWW7evBkQLzU1FdIR6QLsU089dai5uVkBFkIVHInDi0tdNUvA6gBTPKoUAltSUqIACwJgVkD0ZEyaeF1CglWrVh368ssvl4E3hQzg/CTzhQsXfn/o0KEH470aIh6NRXWoSddYQ0BeAujWGhoaCnhYzMeK0OoZw65atap1//79gYEDlA0uLPCypaWlP3zzzTcP6THPgYCKvQWEqYoWLVp0Hvph8TbLrp8CkWw2SE7otWuJJ8vytCtXrqTA7jJ4jM/nC/wPO8SMj4/7bTabBP/fe++9/kj7TZcvX97S1ta2HAGFDIrsAMfixYt/+Prrr/8R6/V4PCAr1AW71KRMBGSYOH716tXpUA6Uy+qC9WRlZYF+fpfLZbXb7Sn33HPPb9EkucNyBgcHp4M9wmz/BL+nuFyulKysLMj6GHVqUVmWp8D5Xq9Xzs3N1do6CuqRBgYGUuCYiYweqon/UkWJARl+sP6UgYEBa6geHs2BA/Sw6FXZfQ4wpuX3OODBZnoZNPfSYtdlYW8Eo8jv5Js2bZqSVBl3rYFz2by1IA+k5bTZbECpBHJ6PB7Y10spEhIiQxks5HxvA38RQplwHtbJ7m6D8vIz2uAzHAd/uHGJ1sWN+XZBRrhb3Lp1S3nHF1s2+z/WDbJhGVp1sLE+lgHnqdtLhXWLWAfYms23JtoOiy8MM6MjC2hH7DKF36FNQWdMmp2enj5SUVHhXLp06b7nn39+Z3Z29ljAHnwFEBIUFxd3j4yMBDK/YEFsqnZ+ow4oB7ckYo2NWbMjMSarDBqG34wDy2EzgrMelg0RABaUCY4BWfj9GngIeDnZGFnrgtRarMlcsJpQsOeyO+Sg/qL6sTCt3/jFmaLK+WH3UBcUXtSiNg9nP9YJsXXyZbG2ZTnbtm3bhxs2bNhWVFSkpH//nQcD9339+vU7CwoKLo+NjU3nQYDPuPkFGjTc5RmNQrxX4Q2vtXcXXixsCMNnrBHdKSJptFDH8HuGsfKHgpi1magRteoUedhIdWDBwQsJvVyoNmTBCgVcOA6wTmwXvm4RsGrd8u7du9etW7euNghYrFS9pdrYW0kkgPIGjcQg4RQVNVK4c1jPxnsh/CzyFuEaLlIbRKu3FhSR6Kmlq9bFH2mZkRwXycXClyM6h3+oh3OYcFN+8cUX//fjjz/eCumnhF1TsAQGU76LKmQhChcDhlMcvZSWR9L6HmNE3LdLq4FYY8AxfAwV7g4QKsbWChH426CWDdiLBy8G1mtHuv0p6734ukRhw0RAw3L59ojUflp3H35HIP7z1KlT5TVr1tTX1tb+K2w5IAQ2MzNzdGRkZBZ0X+FDgxY4rMB847JXv1ajhQMe4joEQBTkhzN+uN/DXVB6/m5k2aOxGz7MwTMG6AwXLT4QQo/Mtm3b3n3//fff0gwJ3nrrrf94++23/8hWKvIm0QgV6lg+9EDQ4ftwD228jOEegPgYKpyHmKjekZ4H8rCxebSQ8nEl6wnxN16WSONr/q410TCDrR/tr+WxIRSA42EbVnjdd999P+/atWv1I4888q0msPBDcXHxDxcvXpzHxmNIP/zO7pnF3sZYgaI1TLgLAMMAKJcHWe0Kkn2+v901Qmwtmqhb1kc6ehhX+aO9iETtqFUG9vbwv0PbLVq0qP2FF174aOPGjbuwTzukgT744INN77zzzh/dbvddFovFO2PGjBt33333KMwlgB4GHBhAD8n0VcowQYbZ5VvTwPjA4ff7cdeZgL5QPm5Dz4QOEsDq8XimeTye6Tdu3EjNyMi4CZNesrKyeu644w64QpVj4AVbKqnvSoe/1+udCu/qdkyBC1316oo91IsO9FPKgmOtVqtblSVgM/ZCZQcJ1Hrsfj+Mh0hQvyIDbJ8DqUpVXQN6qts9gaxSamrqOHzGusPcmeAChVEcK+rE1qPagW1j5X+oBx6soY3U4zU5UL2/4gi8Xm+quoWVcp7aPtDPDVUpMrN2hP+tVqvPZrP51Ns81q8cB8erYR70nSt3GtWzTsnNzb34wAMPnHj44Yc7oeiAdw9lEFj0NzY2puw56/P54EHMr47CwFcwugIjEzAKwhaTIknSb+G8Jf87jLxwoyF4CJAHirKbgMBnANyt7v0VcXWQYxZsxY4ksbBxWzJBPfAHLRIwWsSVRXkg8DyReqI9L9rjA1f1bTBj7t2BO612jfQWFKXp6XCyQGwsQMDGxq5Uaows8P8o0h6i6hb3xgAAAABJRU5ErkJggg==;rotation=45;direction=south;" vertex="1" parent="1">
          <mxGeometry x="260" y="503.0799999999999" width="230.34" height="223.84" as="geometry" />
        </mxCell>
        <mxCell id="84sB6DKWZIwG1NnqUY4s-28" value="Exit game" style="rounded=0;whiteSpace=wrap;html=1;" vertex="1" parent="1">
          <mxGeometry x="180" y="610" width="120" height="60" as="geometry" />
        </mxCell>
        <mxCell id="84sB6DKWZIwG1NnqUY4s-29" value="loop game" style="rounded=0;whiteSpace=wrap;html=1;" vertex="1" parent="1">
          <mxGeometry x="450" y="610" width="116" height="64" as="geometry" />
        </mxCell>
        <mxCell id="84sB6DKWZIwG1NnqUY4s-30" style="edgeStyle=none;rounded=0;orthogonalLoop=1;jettySize=auto;html=1;exitX=0.5;exitY=1;exitDx=0;exitDy=0;entryX=0.608;entryY=0.092;entryDx=0;entryDy=0;entryPerimeter=0;" edge="1" parent="1" source="84sB6DKWZIwG1NnqUY4s-1" target="84sB6DKWZIwG1NnqUY4s-6">
          <mxGeometry relative="1" as="geometry" />
        </mxCell>
        <mxCell id="84sB6DKWZIwG1NnqUY4s-31" value="Fighter character with health, defence, attack and class" style="text;strokeColor=none;align=center;fillColor=none;html=1;verticalAlign=middle;whiteSpace=wrap;rounded=0;" vertex="1" parent="1">
          <mxGeometry x="270" y="80" width="80" height="30" as="geometry" />
        </mxCell>
        <mxCell id="84sB6DKWZIwG1NnqUY4s-32" value="" style="shape=image;verticalLabelPosition=bottom;labelBackgroundColor=default;verticalAlign=top;aspect=fixed;imageAspect=0;image=data:image/png,iVBORw0KGgoAAAANSUhEUgAAANsAAABtCAYAAAAoEBQoAAAAAXNSR0IArs4c6QAAFdJJREFUeF7tXQtUk1e2BrRaBbW2tVJRUQLLSqUKVpFBRaWCz4DIIyHUoEGQIL5GW23xQa1tZ3TJzMWEhyLgI1pzZ6pznWHEt6iMLq7Lq4s714ojl9Fa9c5SL+ID1Ny7I7vr9J9EAvyPhOx/LVZC/vOfvc+3z3ce++xzflcXuggBQkAUBFxFkUJCCAFCwIXIRpWAEBAJASKbSECTGEKAyEZ1gBAQCQEim0hAkxhCgMhGdYAQEAkBIptIQJMYQoDIRnWAEBAJASKbSECTGEKAyEZ1gBAQCQEim0hAkxhCgMhGdYAQEAkBIptIQJMYQoDIRnWAEBAJASKbSECTGEKAyEZ1gBAQCQEim0hAkxhCgMhGdYAQEAkBIptIQJMYQoDIRnWAEBAJASKbSECTGEKAyEZ1gBAQCQEim0hAkxhCgMhGdYAQEAkBIptIQJMYQoDIRnWAEBAJASKbSECTGEKAyEZ1gBAQCQEim0hACyEmLy9v3ogRIy6GhIRcECJ/ypNfBIhs/OIpam5bt26dO3/+/O0BAQGXExISdiUkJBj8/PxuiKoECbMZAYcgW3V1dZfHjx8Peeutt+4OHjz4R5tL18ET5ubmzl22bNn2pqYmc0nd3NxcQkNDTyiVyt3p6eklrq6uzzo4BA5VPLsj25YtW1IuXbo0oq6ubvAPP/zg9/333/s9f/7cBStU586dXby8vOpkMtnV/v37X/f29v67QqEwvP/++zUOhTwPyur1+rmZmZnbAR9XV1cXk8nk0qVLF5fGxkaX1157zUUul3+rVqv3yOXyAzyIoyzaiYBdkK2iomL4gQMH5uzatWvO7du334ZKw72g1Ybf8R5ULiAeVDT4LTExcQ8Mo+Ry+cF2YuIwj8OcTavVFoHCgAXbw7148cJMOPjN09PzcVxcXJFKpdo9ZsyYvzhMATuYopKSrbS0NMFoNM45ePDgNC6ur7/+usuTJ0/MQyP2YgmHQyeoWJAOPkNDQ6umTZu297PPPvuNq6vr8w5mr58VR6fTaTIyMrbBj506dTKXH/ABkj179sz8HXs8xGfYsGE1SqWyZMaMGYbhw4df78j42FvZJCNbZmZmrl6vXwg9E7TKUCmwZUaiWQML0sJlqQfEYVRISEhlTk5O5pgxY/7d3kDnSx+9Xp+SmZm5FTCEC3syJB8QDDAFfAErHG7CfcBw/PjxlSqVqmTChAmlfn5+T/nSi/KxjIAkZPvoo4+OHDlyJByNjqTx8PBwefjwoVlTdpjITQctOHthJevevbvLo0ePzLfge1NTU6NOp0tLTU0t6YgVQKfTzc/IyCgEMkFP1tLFkhEJiUSNj483JiUl7ab5XUsotv2+qGSrqqoaGBISUtvU1OSKwxoc5kAR2DmYLRUIhk5AVC75sHdDWFauXJnzzTffLGs7TPb5pF6vT9VqtQUsiXCUACQCXLp27ery9Ok/d1pswwbPwwW9YO/evR9pNJrt0dHRu8eOHUvzOx5NLxrZsrKyPt2wYcPXJpPJLJMlBBAPSAcVhOsIwV4N08D/UImQYOyQEtIAAaHSIJkRq7CwsPKTJ09G8oid5Fnl5eWlabXafHZuxioFWOAwHb4D6bBxw3tsepwfI7YBAQH/mZCQsHv69OmGwMDAWskL7OAKiEK2kydPBoSFhf2Hm5ubK9fBgT0YtK7YGiNRuMa3hrW14RESF54DuevXr1+zevXq9Q5us5/UB7JlZGTko4MIGyLAlG2Q8AHEGokGxAOMcCjJDi1ZMsKQPDAw8HhycvLulJQUWL/r0I4noeqHKGR744036u/fv+/BNS77P7cnYgvMDi/hd5aMUKm4HjccOrF54vfDhw9PmTx58iGhABUzXyBbenp6vtAyWeLBiEQul+9RKpV7Z8+e/QehZXek/AUn29SpU/9YVlY2jZ2bsb0YgokGBWOi1wwm/ezcjtsKs8NR7jwNW2kgI+QNeaEOV65cGTpkyJD/cnRDikU2dgiPw1LArlevXg1KpXL77NmzDRMnTqT5XQsVSlCyrV+/fsXq1at/DcZConDd9UA8uGdpEu/l5VUfEBBwbuTIkeeHDh16+unTp/3Pnz8fUlFRMb6mpkYGkRJsT4ceTFxCQHLh8Al70pCQkLP79u2b3K9fv5euSwe9xCAb20giTOyIARoyuIYOHfrXpKQkAzhW3nvvPVq/s1CnBCNbVVXV26NHj76LhoEehu19wIjY46BeSIbFixdvSk5OLvrggw+s9j5Xr17t/9133ylWrly5EWRAz8XO3SAv+MNIClzkBVnwu0ajyd+2bVu6g/LMrDa6/sUoA3e+x8pkyQdrpMHBwadgGSElJaXY1dX1ZeAmXS6CkW358uVfbNq0aTWLMRvlgMZDJwbc8/DwaNi/f//UCRMmVNhqm9OnT4+ByPeampqh2KPBnA16PW4vyhLQ19f34dWrV99w5Mk+LGprtdqttmLVlnRc5xMSi/V04hof6w0GWUC8WbNm7YuLizPExMQ4fXymYGQbNGhQ3a1btwbA8BCMAEaD71xnB1aA+Pj43fv27UtqS4WAZ5YvX/5Vbm7uKnY4Cj0pEA5ICPLhO7v4W1BQkJaWllbYVplSPycG2bhlRPKxvRnYFP7HYb2lXs/Ly6shOjq6CDyao0aNOi81dlLIF4RsRUVFGo1G81PMHuta5vZ0cC86OvrE/v37J7YXAIPBEK1Sqb6DHgx6t8ePH5uzhO9AOFw/Qm/lpEmTKo4dOza+vXKleh4XtYWUb2l5AOThsgw0YFzHFXfJBed1uI7q7+9/OTExEeZ3pf7+/reE1N+e8haEbCEhIScrKyvHc4eNuLCKxoLK7+7u7tLQ0MCbHitWrNi4cePG5WyFYCNM2MgUqEg3btwY6OXl9Xd7Moqtuuj1+gVarTbP1vRtTccuteD8mF2rg3xxyM72eBhwYO0+pA0PDz8MC+cpKSmlbdXPUZ7jrZJjgU+ePPmLsLCwMywA7Lif68natGnToqVLl+byCVhwcPC58+fPj7YUqMyVk52dvW7t2rXZfMoXK6+CgoL0tLQ0vVjyhJCDdaNTp04m6O1gGSE6OvpPQsiSOk/eyVZSUqJKTk7eBQVj3cbsOhrMm6C3mTNnzs4dO3bM4RuEo0eP/iI8PPzMqxbKUWa3bt1cYKvJo0ePILrZrXPnzoCJW1NTU6dOnTq5NYeXwT4fiH5xc33ZXFvDzQSXq6sr5PXTn8lket78G2zUg/vmDXuQtlkP+PxZns1yzLfd3EAN83YZ0/Pnz02AX/fu3U21tbX979696843flLnN3DgwP+JiYnZFRsbC/GZVVLrw5d83sm2Zs2aVV988cVXqCAuiHLnbdCibdu2TaFWq7/lqzBsPoMHD667fv36gJbyflXAs6U1ppbyE/M+11Mopmy+ZCHGuAePO//z9/e/qFaroccr9fX1vcOXXCny4Z1sCxYsyM/Pz09DENkJNjcOEo488PX1FeQ4A7lc/ueDBw9GcncEcEHG3g8jVzB6BR0A1pw7YhkL9WPXuWCUYMnzJ5ZOQshh54WQP+u9xuifCRMmHJo3b57h448/3iGEDkLnyTvZIiIiysvLyydzh3Dsuhrc69at2536+vq+QhUwJSXlt0VFRYtamrdZi4K3FBUvlK625MvubmgeWv7T1iJb8rHXNNgowye7PGPJDh4eHs+io6MNSqVyz/Tp0/9sr2Xi6sU72by8vK7dvHnTBysERvlzh2RxcXEHjUbjTKGAys/P1yxYsMC8/NDSZWkfHTYWrEetpXyEuI9RMJA3uzfNUiyoEPKFztPankTuArmFdOb57jvvvHMzPj5+p1qt3jZq1Ki/Ca1ve/LnnWzu7u6mhoYGs07caHwMQIZ74AVcvXq1YF7AsrKyUTNmzDhv6zAQo0vQtQ2f+L09ALf3WbZlx8gYxLWlXru9ssV8nm2M2S1C3CAIdnMsOIxw8zB8Dw0N3R8bG7t3yZIlRjF1t1UW72Tr169fze3bt2Xs8WqoDC52AkBTp049VFZWNsVWRVubzta4QUsOEmutbWt14Cs9u16JIwZ2axFfcqTIBxsTNmwPh5HsPSAjp+E092wymeyviYmJO2fNmlUUFBR0V4oy2CqTd7JNnDjx0PHjxyPYSsyt0OBu79q16//ev3+/l62KtjbdwoULc7ds2bIQnmMdM+xxbzjEtbaZ0palg9bq1dr0lhxNrc1D6vTc+Sb3f+5mV7ZRZgmHzq4333zzXlxc3B6FQrHTkbb28E42jUaj2759u5Yd4lhzQly+fHl4QEDAJSEqw7hx445UVlaGQyvJkh29jGg49uQpHPrCfIgN7xJCP1vz5FZMbi9naz72kI6LPTvVwB4bvZBsD97cYJpmzpxpVKlUsP72b/ZQntbqwDvZsrOzV6xdu/bXlhSBig0XbofR6XSpqampgkStv/vuu7du3brlCfLYYSFbebnRLEAyjKdE/aV2kLCnHLOVk9tItNbwYqVn55xsj8WS6VUNSGho6ClwgCxevNgmZ5dY5WqLHN7JVlhYGJ+amvotes7YbS1cBceNG3e6oqJiXFsUf9UzxcXFMampqb/DIaOltOhq7tu3L2x8vNjY2AhhGi8aGxtNPXr0cHv27Jk5auTFixfmTwjkaP5EzNhIEvyOnxBpYo4+aZ7Ew/wCIkrg7A78xO/mSBMrUSUQLWLq2rWrOTIFvkPgSXMUyrPa2lrZjRs3+vGNH5/5WQsMgN+RZOxaKDR4Pj4+NbGxsSUxMTHFQUFBP/Cpj5R58U62U6dOjQ4LCzvHDiO5Dge2R8nKytrw5ZdfZvEJQu/evR88ePCgp6XTk1EvGK7AwvC6deuy1/3/xad8sfIqKSmZm5ycvF0see2R01I0Tp8+fZ5PmzatUK1Wl06aNOlce2TZ67O8kw0KOnbs2GOnT5+eyB5HgMet4fABFy+b15G68LWjNz4+vsRoNKq5ZGe9o6xD5Nq1a4N8fHz+214N9Cq9cnJykpcuXVrsSLoD9kg86NFmzZq1PzExsTQ2Nna/I5WjLboKQjadTjcnMzOzFA/bsXSQKtvSwZkglZWVoW0pAPvM1q1bY+bPn/876DmB6BjSxI1CQNnh4eHHjx49Oqm9cqV6vqCgQJ2WlmbXpz1znSJgi5EjR15UqVTbFi1alNccoC0VhKLKFYRsUAJvb++/wWuf2B6GDdnCdROs+ImJiTsMBoO6raX/9NNP1+fk5GQBwVjvJ+SH6zNsVAgYPTc3NzU9PV0QB01by9Ga5xyBbGgLPz+/+wqFYotCoSh1xtd7gV0FI9vnn3++ZsOGDdkINvfMEQxDYudzPXv2/IfRaJRHRkaetbXSweumli1bVlJVVTWCzROHjehNxEk4Rsr37dv33u3bt9+0VY49ptPr9WqtVtvuno27vIBl5QZBw+84SuB+wj022gNwhjNIEhMTi2JiYnZERkaeskcMxdRJMLJduHDBOzg4+Dqc688aj91Gzz1tCxa74cUYn3zyya9iY2N3jh49utoaGNXV1Z7l5eVxS5cu/Rc2DXoZ8XxDjEbgvhlHq9Vu0ev1mWKCzbcsPsjGXYMEErFeXNaZxWKIa5FgT25IWVhY2J9SU1NhHraP7zI7cn6CkQ1Ayc7O/uXatWs3cSME0O3Lnspk6egCMPSgQYOuBAYGXvX19b107969t6uqqobV1tYOq6+v74ln+uMZI3ioK8Y0cltfJHdYWNjZEydOjEV3u6MaUKfTJWdkZLTbQQI4scNttA8Ov4FQuJRjaQ8d2DcoKKgmKSkpNz4+vsjT0/NlcCxdP0NAULKBpMjIyIOHDh2ajkMQ1qjwHQmAUd7s+Y7QkrKv+OXajhtOxa7psWFOOLxEedXV1b5+fn7XHL0u8EU2tA3Oo3GebWmoCGkxINrHx8dFpVL9Si6X7/7www8vOzqeQusvONmgAO7u7g8bGhrckRxs9Dr0aNzYSUuvOQLDW9s0iS0xfLIvVIRj7VgHDRDbaDRGREVFHRYaWDHyh3dqa7Xadq2zWdpJz0ansLGJkLZHjx4uUVFRpRD8GxERcVSMcnYUGaKQraysLCQqKuos6ylE4llrPS0FoLKg41YLbpQIDHOAwDgEwsk/yIPF81WrVm3oKMbjs2eztOjMjg5mzJhRHhMTUzp37lxDR8FP7HKIQjYoFJxN8vXXX3+F5ABnCDcOEXo0IIm1nbrcuR/ky31JB1tpWAfMpEmTDh87dixCbICFlMcH2dhRBAzboUGExgpeliiTyWo1Gs1vp0+fXiyTyR4IWRZnyFs0sgGYZ86cGTZ+/PhLEDOIZ/BjD8S+3BCGftyhJTs/s7Sxkw1m5Qa/LlmyZPPmzZt/2dEMygfZABMWa5lM9kyhUGxSKBR7hNqR0dHsYGt5RCUbKPXjjz+6JyQk/P7UqVMR6LjA3oj7YgwM8bK2IxnTc93X+BzcLywsTIZ4O1sBcaR0SDZuQ4QNF4ZG4S4LPH6dO2SEYOyIiAg4GtwQHh5+zJEwcCRdRScbgpOenp6Tl5e3BP/nvhcaT1Rit2XgGh08gxXK0gQf7gcHB1du3rxZGxoaetGRDNIaXcFBsnDhwu3YGMEnHglnrYFivb/wsnqlUmlISEig9bDWAN/GtJKRDfTdu3evori4WFVeXj4DF0cxQBnuW9spzV0XgrT4Eo0RI0ZciIqK2p2VlbW5jZg4zGM6nU6TkZFh3ufFvoSedQrBMB0JBmn8/f3/olard8bFxRUPGDDg5csQ6BIFAUnJhiU8c+bMCKPRqDIYDKo7d+68y6043JArS8ioVCpDVFSUIT4+/o+iIGcHQuAtNsuWLdv65MkTszY4V0Vy4XDR29v7ulKp3BUXF7dj5MiRgpzTaQdw2L0KdkE2RMlkMr1WWFioPnfu3Ii6urpBdXV1PnV1dX5NTU2d0ZEC3jNPT8+bQ4YMuQKVaMCAAXWwk9cZ33aJr4zCnh4PAYLPPn36PJ45c+ZOpVK5c/LkyaftviY6gYJ2RTZreF+7dq1XfX29T48ePf4hk8nqnMAuNhURXhm1ZMmSAvZ05ClTphxISkralZSU9K82ZUKJREPAIcgmGhoOJgiP6wsKCjqr0Wh2y+VymofZsQ2JbHZsnJZUy8vLmzdmzJhjgYGBtS2lpfvSI0Bkk94GpIGTIEBkcxJDUzGlR4DIJr0NSAMnQYDI5iSGpmJKjwCRTXobkAZOggCRzUkMTcWUHgEim/Q2IA2cBAEim5MYmoopPQJENultQBo4CQJENicxNBVTegSIbNLbgDRwEgSIbE5iaCqm9AgQ2aS3AWngJAgQ2ZzE0FRM6REgsklvA9LASRAgsjmJoamY0iNAZJPeBqSBkyBAZHMSQ1MxpUeAyCa9DUgDJ0GAyOYkhqZiSo8AkU16G5AGToIAkc1JDE3FlB4BIpv0NiANnAQBIpuTGJqKKT0CRDbpbUAaOAkCRDYnMTQVU3oEiGzS24A0cBIEiGxOYmgqpvQIENmktwFp4CQI/B8z3f4EmFO1ZAAAAABJRU5ErkJggg==;rotation=-225;" vertex="1" parent="1">
          <mxGeometry x="59.6341598532261" y="10.00211023147665" width="80.37" height="40" as="geometry" />
        </mxCell>
        <mxCell id="84sB6DKWZIwG1NnqUY4s-33" value="set&amp;nbsp; health, defence, attack" style="text;strokeColor=none;align=center;fillColor=none;html=1;verticalAlign=middle;whiteSpace=wrap;rounded=0;" vertex="1" parent="1">
          <mxGeometry x="-50" y="-10" width="150" height="30" as="geometry" />
        </mxCell>
        <mxCell id="84sB6DKWZIwG1NnqUY4s-34" value="" style="shape=image;verticalLabelPosition=bottom;labelBackgroundColor=default;verticalAlign=top;aspect=fixed;imageAspect=0;image=data:image/png,iVBORw0KGgoAAAANSUhEUgAAANsAAABtCAYAAAAoEBQoAAAAAXNSR0IArs4c6QAAFdJJREFUeF7tXQtUk1e2BrRaBbW2tVJRUQLLSqUKVpFBRaWCz4DIIyHUoEGQIL5GW23xQa1tZ3TJzMWEhyLgI1pzZ6pznWHEt6iMLq7Lq4s714ojl9Fa9c5SL+ID1Ny7I7vr9J9EAvyPhOx/LVZC/vOfvc+3z3ce++xzflcXuggBQkAUBFxFkUJCCAFCwIXIRpWAEBAJASKbSECTGEKAyEZ1gBAQCQEim0hAkxhCgMhGdYAQEAkBIptIQJMYQoDIRnWAEBAJASKbSECTGEKAyEZ1gBAQCQEim0hAkxhCgMhGdYAQEAkBIptIQJMYQoDIRnWAEBAJASKbSECTGEKAyEZ1gBAQCQEim0hAkxhCgMhGdYAQEAkBIptIQJMYQoDIRnWAEBAJASKbSECTGEKAyEZ1gBAQCQEim0hAkxhCgMhGdYAQEAkBIptIQJMYQoDIRnWAEBAJASKbSECTGEKAyEZ1gBAQCQEim0hACyEmLy9v3ogRIy6GhIRcECJ/ypNfBIhs/OIpam5bt26dO3/+/O0BAQGXExISdiUkJBj8/PxuiKoECbMZAYcgW3V1dZfHjx8Peeutt+4OHjz4R5tL18ET5ubmzl22bNn2pqYmc0nd3NxcQkNDTyiVyt3p6eklrq6uzzo4BA5VPLsj25YtW1IuXbo0oq6ubvAPP/zg9/333/s9f/7cBStU586dXby8vOpkMtnV/v37X/f29v67QqEwvP/++zUOhTwPyur1+rmZmZnbAR9XV1cXk8nk0qVLF5fGxkaX1157zUUul3+rVqv3yOXyAzyIoyzaiYBdkK2iomL4gQMH5uzatWvO7du334ZKw72g1Ybf8R5ULiAeVDT4LTExcQ8Mo+Ry+cF2YuIwj8OcTavVFoHCgAXbw7148cJMOPjN09PzcVxcXJFKpdo9ZsyYvzhMATuYopKSrbS0NMFoNM45ePDgNC6ur7/+usuTJ0/MQyP2YgmHQyeoWJAOPkNDQ6umTZu297PPPvuNq6vr8w5mr58VR6fTaTIyMrbBj506dTKXH/ABkj179sz8HXs8xGfYsGE1SqWyZMaMGYbhw4df78j42FvZJCNbZmZmrl6vXwg9E7TKUCmwZUaiWQML0sJlqQfEYVRISEhlTk5O5pgxY/7d3kDnSx+9Xp+SmZm5FTCEC3syJB8QDDAFfAErHG7CfcBw/PjxlSqVqmTChAmlfn5+T/nSi/KxjIAkZPvoo4+OHDlyJByNjqTx8PBwefjwoVlTdpjITQctOHthJevevbvLo0ePzLfge1NTU6NOp0tLTU0t6YgVQKfTzc/IyCgEMkFP1tLFkhEJiUSNj483JiUl7ab5XUsotv2+qGSrqqoaGBISUtvU1OSKwxoc5kAR2DmYLRUIhk5AVC75sHdDWFauXJnzzTffLGs7TPb5pF6vT9VqtQUsiXCUACQCXLp27ery9Ok/d1pswwbPwwW9YO/evR9pNJrt0dHRu8eOHUvzOx5NLxrZsrKyPt2wYcPXJpPJLJMlBBAPSAcVhOsIwV4N08D/UImQYOyQEtIAAaHSIJkRq7CwsPKTJ09G8oid5Fnl5eWlabXafHZuxioFWOAwHb4D6bBxw3tsepwfI7YBAQH/mZCQsHv69OmGwMDAWskL7OAKiEK2kydPBoSFhf2Hm5ubK9fBgT0YtK7YGiNRuMa3hrW14RESF54DuevXr1+zevXq9Q5us5/UB7JlZGTko4MIGyLAlG2Q8AHEGokGxAOMcCjJDi1ZMsKQPDAw8HhycvLulJQUWL/r0I4noeqHKGR744036u/fv+/BNS77P7cnYgvMDi/hd5aMUKm4HjccOrF54vfDhw9PmTx58iGhABUzXyBbenp6vtAyWeLBiEQul+9RKpV7Z8+e/QehZXek/AUn29SpU/9YVlY2jZ2bsb0YgokGBWOi1wwm/ezcjtsKs8NR7jwNW2kgI+QNeaEOV65cGTpkyJD/cnRDikU2dgiPw1LArlevXg1KpXL77NmzDRMnTqT5XQsVSlCyrV+/fsXq1at/DcZConDd9UA8uGdpEu/l5VUfEBBwbuTIkeeHDh16+unTp/3Pnz8fUlFRMb6mpkYGkRJsT4ceTFxCQHLh8Al70pCQkLP79u2b3K9fv5euSwe9xCAb20giTOyIARoyuIYOHfrXpKQkAzhW3nvvPVq/s1CnBCNbVVXV26NHj76LhoEehu19wIjY46BeSIbFixdvSk5OLvrggw+s9j5Xr17t/9133ylWrly5EWRAz8XO3SAv+MNIClzkBVnwu0ajyd+2bVu6g/LMrDa6/sUoA3e+x8pkyQdrpMHBwadgGSElJaXY1dX1ZeAmXS6CkW358uVfbNq0aTWLMRvlgMZDJwbc8/DwaNi/f//UCRMmVNhqm9OnT4+ByPeampqh2KPBnA16PW4vyhLQ19f34dWrV99w5Mk+LGprtdqttmLVlnRc5xMSi/V04hof6w0GWUC8WbNm7YuLizPExMQ4fXymYGQbNGhQ3a1btwbA8BCMAEaD71xnB1aA+Pj43fv27UtqS4WAZ5YvX/5Vbm7uKnY4Cj0pEA5ICPLhO7v4W1BQkJaWllbYVplSPycG2bhlRPKxvRnYFP7HYb2lXs/Ly6shOjq6CDyao0aNOi81dlLIF4RsRUVFGo1G81PMHuta5vZ0cC86OvrE/v37J7YXAIPBEK1Sqb6DHgx6t8ePH5uzhO9AOFw/Qm/lpEmTKo4dOza+vXKleh4XtYWUb2l5AOThsgw0YFzHFXfJBed1uI7q7+9/OTExEeZ3pf7+/reE1N+e8haEbCEhIScrKyvHc4eNuLCKxoLK7+7u7tLQ0MCbHitWrNi4cePG5WyFYCNM2MgUqEg3btwY6OXl9Xd7Moqtuuj1+gVarTbP1vRtTccuteD8mF2rg3xxyM72eBhwYO0+pA0PDz8MC+cpKSmlbdXPUZ7jrZJjgU+ePPmLsLCwMywA7Lif68natGnToqVLl+byCVhwcPC58+fPj7YUqMyVk52dvW7t2rXZfMoXK6+CgoL0tLQ0vVjyhJCDdaNTp04m6O1gGSE6OvpPQsiSOk/eyVZSUqJKTk7eBQVj3cbsOhrMm6C3mTNnzs4dO3bM4RuEo0eP/iI8PPzMqxbKUWa3bt1cYKvJo0ePILrZrXPnzoCJW1NTU6dOnTq5NYeXwT4fiH5xc33ZXFvDzQSXq6sr5PXTn8lket78G2zUg/vmDXuQtlkP+PxZns1yzLfd3EAN83YZ0/Pnz02AX/fu3U21tbX979696843flLnN3DgwP+JiYnZFRsbC/GZVVLrw5d83sm2Zs2aVV988cVXqCAuiHLnbdCibdu2TaFWq7/lqzBsPoMHD667fv36gJbyflXAs6U1ppbyE/M+11Mopmy+ZCHGuAePO//z9/e/qFaroccr9fX1vcOXXCny4Z1sCxYsyM/Pz09DENkJNjcOEo488PX1FeQ4A7lc/ueDBw9GcncEcEHG3g8jVzB6BR0A1pw7YhkL9WPXuWCUYMnzJ5ZOQshh54WQP+u9xuifCRMmHJo3b57h448/3iGEDkLnyTvZIiIiysvLyydzh3Dsuhrc69at2536+vq+QhUwJSXlt0VFRYtamrdZi4K3FBUvlK625MvubmgeWv7T1iJb8rHXNNgowye7PGPJDh4eHs+io6MNSqVyz/Tp0/9sr2Xi6sU72by8vK7dvHnTBysERvlzh2RxcXEHjUbjTKGAys/P1yxYsMC8/NDSZWkfHTYWrEetpXyEuI9RMJA3uzfNUiyoEPKFztPankTuArmFdOb57jvvvHMzPj5+p1qt3jZq1Ki/Ca1ve/LnnWzu7u6mhoYGs07caHwMQIZ74AVcvXq1YF7AsrKyUTNmzDhv6zAQo0vQtQ2f+L09ALf3WbZlx8gYxLWlXru9ssV8nm2M2S1C3CAIdnMsOIxw8zB8Dw0N3R8bG7t3yZIlRjF1t1UW72Tr169fze3bt2Xs8WqoDC52AkBTp049VFZWNsVWRVubzta4QUsOEmutbWt14Cs9u16JIwZ2axFfcqTIBxsTNmwPh5HsPSAjp+E092wymeyviYmJO2fNmlUUFBR0V4oy2CqTd7JNnDjx0PHjxyPYSsyt0OBu79q16//ev3+/l62KtjbdwoULc7ds2bIQnmMdM+xxbzjEtbaZ0palg9bq1dr0lhxNrc1D6vTc+Sb3f+5mV7ZRZgmHzq4333zzXlxc3B6FQrHTkbb28E42jUaj2759u5Yd4lhzQly+fHl4QEDAJSEqw7hx445UVlaGQyvJkh29jGg49uQpHPrCfIgN7xJCP1vz5FZMbi9naz72kI6LPTvVwB4bvZBsD97cYJpmzpxpVKlUsP72b/ZQntbqwDvZsrOzV6xdu/bXlhSBig0XbofR6XSpqampgkStv/vuu7du3brlCfLYYSFbebnRLEAyjKdE/aV2kLCnHLOVk9tItNbwYqVn55xsj8WS6VUNSGho6ClwgCxevNgmZ5dY5WqLHN7JVlhYGJ+amvotes7YbS1cBceNG3e6oqJiXFsUf9UzxcXFMampqb/DIaOltOhq7tu3L2x8vNjY2AhhGi8aGxtNPXr0cHv27Jk5auTFixfmTwjkaP5EzNhIEvyOnxBpYo4+aZ7Ew/wCIkrg7A78xO/mSBMrUSUQLWLq2rWrOTIFvkPgSXMUyrPa2lrZjRs3+vGNH5/5WQsMgN+RZOxaKDR4Pj4+NbGxsSUxMTHFQUFBP/Cpj5R58U62U6dOjQ4LCzvHDiO5Dge2R8nKytrw5ZdfZvEJQu/evR88ePCgp6XTk1EvGK7AwvC6deuy1/3/xad8sfIqKSmZm5ycvF0see2R01I0Tp8+fZ5PmzatUK1Wl06aNOlce2TZ67O8kw0KOnbs2GOnT5+eyB5HgMet4fABFy+b15G68LWjNz4+vsRoNKq5ZGe9o6xD5Nq1a4N8fHz+214N9Cq9cnJykpcuXVrsSLoD9kg86NFmzZq1PzExsTQ2Nna/I5WjLboKQjadTjcnMzOzFA/bsXSQKtvSwZkglZWVoW0pAPvM1q1bY+bPn/876DmB6BjSxI1CQNnh4eHHjx49Oqm9cqV6vqCgQJ2WlmbXpz1znSJgi5EjR15UqVTbFi1alNccoC0VhKLKFYRsUAJvb++/wWuf2B6GDdnCdROs+ImJiTsMBoO6raX/9NNP1+fk5GQBwVjvJ+SH6zNsVAgYPTc3NzU9PV0QB01by9Ga5xyBbGgLPz+/+wqFYotCoSh1xtd7gV0FI9vnn3++ZsOGDdkINvfMEQxDYudzPXv2/IfRaJRHRkaetbXSweumli1bVlJVVTWCzROHjehNxEk4Rsr37dv33u3bt9+0VY49ptPr9WqtVtvuno27vIBl5QZBw+84SuB+wj022gNwhjNIEhMTi2JiYnZERkaeskcMxdRJMLJduHDBOzg4+Dqc688aj91Gzz1tCxa74cUYn3zyya9iY2N3jh49utoaGNXV1Z7l5eVxS5cu/Rc2DXoZ8XxDjEbgvhlHq9Vu0ev1mWKCzbcsPsjGXYMEErFeXNaZxWKIa5FgT25IWVhY2J9SU1NhHraP7zI7cn6CkQ1Ayc7O/uXatWs3cSME0O3Lnspk6egCMPSgQYOuBAYGXvX19b107969t6uqqobV1tYOq6+v74ln+uMZI3ioK8Y0cltfJHdYWNjZEydOjEV3u6MaUKfTJWdkZLTbQQI4scNttA8Ov4FQuJRjaQ8d2DcoKKgmKSkpNz4+vsjT0/NlcCxdP0NAULKBpMjIyIOHDh2ajkMQ1qjwHQmAUd7s+Y7QkrKv+OXajhtOxa7psWFOOLxEedXV1b5+fn7XHL0u8EU2tA3Oo3GebWmoCGkxINrHx8dFpVL9Si6X7/7www8vOzqeQusvONmgAO7u7g8bGhrckRxs9Dr0aNzYSUuvOQLDW9s0iS0xfLIvVIRj7VgHDRDbaDRGREVFHRYaWDHyh3dqa7Xadq2zWdpJz0ansLGJkLZHjx4uUVFRpRD8GxERcVSMcnYUGaKQraysLCQqKuos6ylE4llrPS0FoLKg41YLbpQIDHOAwDgEwsk/yIPF81WrVm3oKMbjs2eztOjMjg5mzJhRHhMTUzp37lxDR8FP7HKIQjYoFJxN8vXXX3+F5ABnCDcOEXo0IIm1nbrcuR/ky31JB1tpWAfMpEmTDh87dixCbICFlMcH2dhRBAzboUGExgpeliiTyWo1Gs1vp0+fXiyTyR4IWRZnyFs0sgGYZ86cGTZ+/PhLEDOIZ/BjD8S+3BCGftyhJTs/s7Sxkw1m5Qa/LlmyZPPmzZt/2dEMygfZABMWa5lM9kyhUGxSKBR7hNqR0dHsYGt5RCUbKPXjjz+6JyQk/P7UqVMR6LjA3oj7YgwM8bK2IxnTc93X+BzcLywsTIZ4O1sBcaR0SDZuQ4QNF4ZG4S4LPH6dO2SEYOyIiAg4GtwQHh5+zJEwcCRdRScbgpOenp6Tl5e3BP/nvhcaT1Rit2XgGh08gxXK0gQf7gcHB1du3rxZGxoaetGRDNIaXcFBsnDhwu3YGMEnHglnrYFivb/wsnqlUmlISEig9bDWAN/GtJKRDfTdu3evori4WFVeXj4DF0cxQBnuW9spzV0XgrT4Eo0RI0ZciIqK2p2VlbW5jZg4zGM6nU6TkZFh3ufFvoSedQrBMB0JBmn8/f3/olard8bFxRUPGDDg5csQ6BIFAUnJhiU8c+bMCKPRqDIYDKo7d+68y6043JArS8ioVCpDVFSUIT4+/o+iIGcHQuAtNsuWLdv65MkTszY4V0Vy4XDR29v7ulKp3BUXF7dj5MiRgpzTaQdw2L0KdkE2RMlkMr1WWFioPnfu3Ii6urpBdXV1PnV1dX5NTU2d0ZEC3jNPT8+bQ4YMuQKVaMCAAXWwk9cZ33aJr4zCnh4PAYLPPn36PJ45c+ZOpVK5c/LkyaftviY6gYJ2RTZreF+7dq1XfX29T48ePf4hk8nqnMAuNhURXhm1ZMmSAvZ05ClTphxISkralZSU9K82ZUKJREPAIcgmGhoOJgiP6wsKCjqr0Wh2y+VymofZsQ2JbHZsnJZUy8vLmzdmzJhjgYGBtS2lpfvSI0Bkk94GpIGTIEBkcxJDUzGlR4DIJr0NSAMnQYDI5iSGpmJKjwCRTXobkAZOggCRzUkMTcWUHgEim/Q2IA2cBAEim5MYmoopPQJENultQBo4CQJENicxNBVTegSIbNLbgDRwEgSIbE5iaCqm9AgQ2aS3AWngJAgQ2ZzE0FRM6REgsklvA9LASRAgsjmJoamY0iNAZJPeBqSBkyBAZHMSQ1MxpUeAyCa9DUgDJ0GAyOYkhqZiSo8AkU16G5AGToIAkc1JDE3FlB4BIpv0NiANnAQBIpuTGJqKKT0CRDbpbUAaOAkCRDYnMTQVU3oEiGzS24A0cBIEiGxOYmgqpvQIENmktwFp4CQI/B8z3f4EmFO1ZAAAAABJRU5ErkJggg==;rotation=41;" vertex="1" parent="1">
          <mxGeometry x="90.00222162571238" y="229.99722162571237" width="80.37" height="40" as="geometry" />
        </mxCell>
        <mxCell id="84sB6DKWZIwG1NnqUY4s-36" value="Enemy character with health ,defence, attack and class" style="text;strokeColor=none;align=center;fillColor=none;html=1;verticalAlign=middle;whiteSpace=wrap;rounded=0;" vertex="1" parent="1">
          <mxGeometry x="-74.82" y="245.89" width="199.63" height="30" as="geometry" />
        </mxCell>
        <mxCell id="84sB6DKWZIwG1NnqUY4s-38" value="" style="shape=image;verticalLabelPosition=bottom;labelBackgroundColor=default;verticalAlign=top;aspect=fixed;imageAspect=0;image=data:image/png,iVBORw0KGgoAAAANSUhEUgAAAHQAAABbCAYAAACiYKHEAAAAAXNSR0IArs4c6QAADX5JREFUeF7tnQtMVGcWgIdaHwhMsTiFGHdtfQ4q0q2tOJIAQZRh5SEjlqAgPip2tbs8jLJ0C7VL0BIDpFC6SMUwDLAtWJWAK+K0wBAE6kYeDopIQSsEISCPsUCrlc2hHvf3doA7c6fpcP0nMczce865/3++e87/vFcTAf3wygMmvKoNrYyAAuXZTUCBUqA88wDPqkMjlALlmQd4Vh0aoRQozzzAs+rQCKVAeeYBnlWHRigFyjMP8Kw6NEIpUJ55gGfVoRH6vAJdv359VVVV1VozM7OHVlZW/RYWFn2mpqZ9IpGof/bs2f1CoXDAwsJCY25uPmhubq4RCoUaU1NTjaWlpUYkEvUuWLDgukgk0vDMf0ZXHdYR6uLicrmsrEwCNTAx+UXthRdeEPz8889j3/HY6Ojo03Nw/tGjR2O/p0+fLrCxsRlevHhx7apVq+rt7OzUixYtum5ra3vdxsam2+g8M0ULpBPQ8vJyCQLD+k6bNk0Axx4/fqzVBTNmzBA8fPhwTAZvAqastbW1YOnSpQ3Lly9vEIvF18RisXrZsmWNCxcuvDNF/fq7FVsXoFUVFRVrAQxABCgQlRChJGSISjgOx/DfeLUDO2SEk3ZmzZolMDc3F3h6eubKZLI8Ly+viyYmJiO/m6emyIVZA3V2dq4qLy9fq0+9ADCAhg/cCCQ4hI8y5Hky+k1NTQVOTk5fBwQE5Eml0ks2NjZt+pSF7zqsgTo5OVVXVFQ4AAyAgxEKvwEGsw3FY9oAkhFMOhihkikcrwVyGNEgJ5FI6j08PM66u7tfWrNmzWW+g2JbP9ZAXVxcxiIUATLbUoTEvDCmZ6Y8yo2nR9ph2njxxRefRjrYFYvF7c7Ozv+RSqUlLi4uX8+ZM6efrQP4JscaKESoSqVywB7tRIBIJ5GdIbJNxWiENhTbXbI91RbFZNSTEUtG8fz58wd8fX0VQUFBWWvWrLnCN2CT1Yc10Ojo6GPDw8MvdXV1CeFvX1+fcGRk5KX+/n7hgwcPLAcGBiwfPHhggsOU8S7MTM14g8BfhI/g8AYggZE3Al4DIhauC0Mj+At68N3Dw6No165dmb6+vl9N5gi+nGcNlG2Fe3t7hUNDQxYAemRkxKKjo2NuZ2en7bVr12wbGhpsm5ubV/b09AjJNphpm0zDCAtkyI4V/Iae8MjIyNM2He3gDTBz5kzBjz/+KHBwcKjz9/fP2r59e661tXUX27pMRTmDA2XjhHv37pm1trauaGlpWdbc3Gzb0tKyvL6+fmVbW9siAARtJnwwBU+U5mGc+9NPP43JY6cJbgIcTiFUOG9tbX0/MDAwRyaTKRwdHXmZjn8XoBNBb2tre7WmpuaNCxcu/Lmqqsrn1q1bcyFiyckIgAi/yfTOjF4yyiGSATBMcEAqhu/e3t5Fu3fvzvT29uZVOjY6oEzYdXV1K5RK5cbCwkLPq1evumo0v0wHY1plzkSRkxVMyNoi3cHB4VpYWNjHAQEBuWyyi7HLGD1Q0oH3799/SaVSuSqVSreysrJNarV6AZwn21myQ0V2tAA0ROoPP/wwNmYGHYhY/Pj7+587dOhQ7JtvvnnV2KFNVL4pBZRZEbVa/ZZSqXS9cOHChosXL65ngsKZJuYUJHPsi+3snDlzBKGhoXEhISFH582bNzQVwU5poKTDv/nmG2e5XB6ck5OzC9pW7AGjDJmKcWIC2mFy9gmHTRKJpGX//v1HgoKCcqYaVN4ARcffuHFjqVwu36lQKHZ3dHRYYzRCe0ou5zFBMdtbAL158+bCqKioI1MpDfMOKIKC9jY7OztYLpfvqaurW4UzUthbxuEO9HqxLUX4eA6iHI4dPnz46L59++KmQhrmLVAyArOzs/3Pnj2768yZM+6QVhEYmYbhO6RimIhgtrFmZmawXns7IiLiA2NPw88FUIRbWlrqolAogjMzM3dCpOIEBHSKYHICo5ecMybhzp49W+Dq6qrMyMgINNYZp+cKKIKFYc8nn3zyj8LCQhdmW8ocApFDH/gOadjOzq41OTl5m0QiqTG2TtNzCRQhpKen74+Lizty7949EaRaWEQfHh4eO02ChXRM7tKANlckEj0+ceLEdplM9gUXqJmZmTt27tyZxcUGqftcAwVHfP/99/NiY2P/npGR8VdMuTgLRc4NM1eR8NyxY8fej4qKOqYLkL6+PsuMjIz9KSkp4fB9cHBwui76vJ1YMJQTwA6MYxMTE6OLiorWM8esABMjlly7BTn4vWfPnpNpaWl7JytPY2PjiqSkpPe+/PLLd2EKE2+c0dHR6SYmJr9sj+T4ee4jlOm/kydP7jt69Ghsa2uriOwckZBRh1yb9fX1LUtNTd2kbWhTUlKy8cSJE2EFBQUecHOAHtjD752dndaG2spKgWqJiM7OTtHnn3/+fkxMTBicxkgSCoWCwcHBZ9pXcvF99erV7VlZWe4rVqy4DnqZmZl7UlJSIm7cuLF8aOjZmURSr6mpSSwWi29yDM4xdQp0Ai8qlUrPvXv35ra1tVkwI5TsQAEcSMkw9LGysoKdEvmlpaVeHR0ds8hhD8jBRAZ0wMac/2S7a3V1tWTt2rXVFKghPDCJDVh4P3jwoFypVL4BojApAbNOuPhORhq2swAKgGNUwjgXesbMThdeuri42FMqlZ43RHVohLLwIvREw8PDTyoUii3kFlMyasl1WYw8HO7gjgpydwXeCPA3KysrKDAwMJtFUSYVoUAnddH/BSIjI+Pj4+MPAxiAhqmTNAETDzh9SK7mgAwzbWO0JyQkhIaFhSXrUJRxRSlQHbyo0WhEgYGB/y4oKBhbe8XeKk7uQ7Th2iu5r4lcymNuRYXfMTEx//zoo48+1KEoFCgXZ3377bevZ2dn/y05OXkXcw8xRh6Zipk7FbHtxOMQqQASN7IdPHgwNSEh4T0uZXw6lDKEEb7aKC4u3vTpp5+GFRUVuTHrONlTd7r4JDg4+Au5XB6gi854sjTlavGMQqEISUxMDKutrbXFzguum8JfOKat/dQXiEwmu3TmzJmN+uqTehQow4ujo6PTnJycKqurqx1wFz5z3RRSJbnflysIJyenOpVK9SeudkCfAtXiRdj9L5VKy69cufI6tpHY4WE+D2sICPCwVVNT0x8MYYsCHceLXV1d1p6enmW1tbViXGnBqMSlNFAd76EtXeC88sorI93d3aa66NA2VA9vfffdd3+ESL1z586rAI7cx6uHuXFVYCfE0NCQQYLLIEYMWTljs3X37t0l69atK7t79+48bctqhigvpPP29nYzQ2xCo0BZEIF1THd39/L29nar8caYLMxMKNLT0zN/7ty5HVztUKAsPVhVVfUGpF+NRmMOKuREO3NnPjlny8Y8TDLU1dXZ2dvbq9nITyRDgergwZqaGombmxtA/dWWEYhcAMPc48vWfGVlpbOjo6OKrTztFHH11BP9S5cuuWzevLkUHnqCOVroATN7wbpcCldmCgsLfb28vM7poqtNlkaoHh48d+6cu0wmK8a0C2ufMHOEe30BMNu0i0Bhh39wcPApPYrzjAoFqqcHCwoKvH18fArIHQm4/kkugLM1n5iYeDgiIuI4W3macrl6Sot+fn7+1q1bt+bhGijzHU64EYzNpaOjoz+OjY2NYiNLO0VcvTSBfm5ubuC2bdsU5BPlukQoRviBAwfSU1NT93EtKk25XD0oEMAWkj07duw4qW0SfzLzeCMEBwd/JZfL/SaTn+w8BTqZh1ieT0lJ2R8aGprKfNMouXcXTOECObkgDjIwcVFcXPyrZ21YXv6pGAWqq8cmkE9KSooIDw9PwEidrKdLRvS6devUly9ftuNaHAqUqwcZ+jExMVFxcXFHYSEcX4oFIviiLYhQ5ivw4NySJUs6b926NY9rcShQrh7Uoh8TE3MkLi7uQ/LFWaQY85FFSL9WVlaPent7OT+0RIH+BkDBZGho6MdpaWmRuFWF3LdLbs7Gyz/ZGciZB2cDv5E/eGH2wIEDSadOnQqDZ06Zj0EwKwjne3p6LF9++eUBLpWnQLl4j4XuO++886/8/Px3BwZ+zYlMvWCqqalpoVgs5vSmbgqUBRSuIjBHi+9PYm7/JDdn19fXr7a3t+f0JjMKlCstlvrw9pScnJxtABSW2MghDW4RVSqVG9zc3JQsTWoVo0C5eE9HXT8/v69Onz4tI1/YTO5TOn36tL+fn1+ejmafEadAuXhPD10fH5+i8+fPbyL/gyKACpA/++yzv4SEhKTpYfapCgXKxXt66m7cuPHrkpISV+bTaMePH//g0KFDcXqaHVOjQLl4T09deEnGhg0bSpVKpSOYeLKNUxAZGZkUHx8foadZCpSL47jqdnd3m2/ZsqWsoqJiNS6hhYSEKNLT03dwsU0jlIv3OOoODg5aeXh4qCorK5eDqbfffrs4Ly/Pg4tZCpSL9wygCy++8vb2rmxsbHxVIpH8V6VSvcXFLAXKxXsG0r19+/ZrUqm0esaMGSMNDQ1jr13X90OB6us5A+vdvHlT7OXlVdHc3CziYpoC5eI9A+uq1Wr7lStX1nMxS4Fy8Z4R6lKgRgiFS5EoUC7eM0JdCtQIoXApEgXKxXtGqEuBGiEULkWiQLl4zwh1KVAjhMKlSP8DxejItk8E5rAAAAAASUVORK5CYII=;rotation=-195;" vertex="1" parent="1">
          <mxGeometry x="219.9963773452435" y="309.9988481310072" width="66" height="51.78" as="geometry" />
        </mxCell>
        <mxCell id="84sB6DKWZIwG1NnqUY4s-39" style="edgeStyle=none;rounded=0;orthogonalLoop=1;jettySize=auto;html=1;exitX=0.25;exitY=0;exitDx=0;exitDy=0;" edge="1" parent="1" source="84sB6DKWZIwG1NnqUY4s-38" target="84sB6DKWZIwG1NnqUY4s-38">
          <mxGeometry relative="1" as="geometry" />
        </mxCell>
        <mxCell id="84sB6DKWZIwG1NnqUY4s-40" value="player input = yes" style="text;strokeColor=none;align=center;fillColor=none;html=1;verticalAlign=middle;whiteSpace=wrap;rounded=0;" vertex="1" parent="1">
          <mxGeometry x="490.34" y="530" width="90" height="30" as="geometry" />
        </mxCell>
        <mxCell id="84sB6DKWZIwG1NnqUY4s-41" value="player input = no&lt;div&gt;&lt;br&gt;&lt;/div&gt;" style="text;strokeColor=none;align=center;fillColor=none;html=1;verticalAlign=middle;whiteSpace=wrap;rounded=0;" vertex="1" parent="1">
          <mxGeometry x="210" y="530" width="50" height="30" as="geometry" />
        </mxCell>
        <mxCell id="84sB6DKWZIwG1NnqUY4s-43" value="" style="shape=image;verticalLabelPosition=bottom;labelBackgroundColor=default;verticalAlign=top;aspect=fixed;imageAspect=0;image=data:image/png,iVBORw0KGgoAAAANSUhEUgAAAQIAAABkCAYAAABtlT6jAAAAAXNSR0IArs4c6QAAFGZJREFUeF7tXXtQVEe6nycIEpPadUXqaiIJEaLrGhOJdcX1FQy4oTZms0p4hGcgavZq1GvVdVO38sfNFhVjNFmjUWSQx8AAo4AgAWQk6LKzRrgqItZFhEFNCcRXiTyd161vlnY7JwfmzHBmOMx8UzU1j9P9dffv+/rXX3/dp49YhC9EABFwewTEbo8AAoAIIAIiJAI0AkQAEUAiQBtABBABERIBGgEigAggEaANIAKIgAiJAI0AEUAEkAjQBhABRAAQwFUDtANEABFAIkAbQAQQAfQI0AYQAUQApwZoA4gAIoAxArQBRAARsCCAwUI0BEQAEUAiQBtABBAB9AjQBhABRACnBmgDiAAigDECtAFEABHAYCHaACKACPwTAVw1QEtABBABJAK0AUQAEUCPAG0AEUAEcGqANoAIIAIYI0AbQAQQAQwWog0gAogArhqgDSACiMAIArh8iKaACCACuHyINoAIIAK4fIg2gAggArh8iDaACCACuHyINoAIIAK4fIg2gAggArh8iDaACCACuHyINoAIIAIEAdxHgLaACCACuI8AbQARQARwHwHaACKACOA+AmHYwO3bt73VanXy8ePH3zl79uxKYdQKa+FOCGCMYAK1XVFREZ6ZmZlQXV29oa+vT7x06dIGrVb72gRWya2K7unp8a2vr1/S0dExp7Oz84Xu7u7nr1+/7n/jxo3nZDKZyM/P70ZAQED7s88+2+7v798RFBSkCwwMPO3v7z/kakAhEThZoy0tLQFZWVnJxcXFCe3t7TPB4AwGg2jKlCmil156qenixYsvO7lKblfc+fPngzMyMhILCwvfe/jwoY9IJDKDdywWi0VmM3z950sqlYqMRiNcsPyGa97e3qLw8PCCDz74IDMsLKzGVcBDInCCJs1ms0SpVMbv378/6cKFCyEGg8GCu0QiEZlMpic1WLhwYUtTU9OvnVAltywiPz9/Q0FBQUJZWVk4W8dnA4UmB0IMkA4IYcaMGTcSEhJyIyIi8hYvXvx/kxlUJAIHaq+mpmaZSqVKKioqerevr8/rqaeeEj169MhSIngAQ0M/9TAXLFhwrbm5OdCBVXJL0V1dXb9KSUnJrKioeNNsNlts3sfHR9TX12cVD7rzMxPL5XKRXq8XPf300w8///zznampqUesChRoAiQCnhXT0dHhW1hYmJSenh5/+/btucPDwz9zOUmRTI9g3rx5HVevXn2B5yq5tbhz5869un79+mPd3d1zoNMy3X8u4DDz0HqDqR14dfCOiYnJzcvLi+MiU2hpkAh40khhYeEGpVKZUFVVFQ4GJ5VKxTC/ZL48PDxEjx8/tvxNf4ffgYGBN1tbW5/jqUpuL6akpGTd22+/XQzTABjZoUNDPAZe8B06NJuOmMAx08JvQg4kpkA8vICAgA6tVrtwxowZ1t0NAWkIiWAcytBqtYtUKlVydnZ2TG9v79Nk3kkMjcz/weCg0w8PD1sCTmBE4FYSQiBG5e/vf1un0/3bOKqEWUcQiI2NzVUqlTEymcxi44QA4Ds9inMBjHR8Op4D+UCv8CL/k3QSicR85syZV0JCQi5xkS+ENEgENmrhxx9/9CkoKEgqKSlJ/O67714mowV0cDAMYnAwAoGBMEcdMjIRd5IYFPyeNWvWjz/88IOvjVXC5AwEtm/f/tf9+/f/B+iCXgWgvTDQC62v0UCkpwGjEQJZ+aF1CWRw//79Xz7zzDMPJoOCkAg4aqmsrGxtZmZmYmVl5R9hZIfR39PT0+Ja0u4mGB4diCLBJviEN/EC2IzHz8/vfldX1y85VgmTsSCg0WjWhIaGnqIvQWcGvYC+IEDLnJKNBSSTCIgspndAiJ8mixdffPHatWvXJkXwF4lgDCu4evXqi3l5eUkKhSLuzp07fhBxBgNgCziRjk0bDiEB2oWk16SJHJLH19f3UU9PzzTs4fYjMH369Nv37t3zA31ArIYZkKUxB3JgegxsJdM6Y14nxEDLIWWA/uPi4o4ePXo0yf4WOScnEgEDZ7PZLFepVLEHDx6Mr6+vX+6sbdhgUD4+PkO9vb1ezlG965Wybt26vIqKimgyJRhr6c9ZrQdC2rJly2d79+79L2eVaU85SAQjqNXV1f0WmLu0tDTq4cOHnvA37b7bA64teWAUmTp16uO+vj5L2fiyDQHw2lJTU7NBZyNTN9sEOCg18Q5qa2uXrV69+u8OKmbcYt2aCHQ63UylUplYUlISf+HChbkw+hNXDxTInAeOG20rAry9vQ0DAwNyR5fjivKXL19ed/bs2RXQNtAd7Pzr7+8XRFPBM0lOTk5PT0//QBAVYqmEWxIBrPlnZGTE19bWrjUajU8woD0AWwJK41EuHW/w9PQ0DQ8PS8cjzx3zgjf3+uuvnyExHIKBPZuH+MYP6gBBSk9Pz6GWlpZZs2bNusd3GXzIcxsiaGxsfOXgwYOw7Pdeb2/vNBjtIcDjTPefTWG0scrlcpNer0cisNGyo6Ojs/Pz8y07+giBA64wEtP7B2wUy2tysLPPPvts644dO/7Kq2CehLk0EZA1f9jxd/78+UXM4BEd6ScRZEgD30dbHeAJ9ydi6Ij0SP1cWid84wdbugMDA7v0er1lWkemc2z3cvBdNhd54A3AkjHYVHBw8IWGhoZXueRzdhqXNLra2trfHTp0KFGtVr8D7iLdudnIgN7cM9rdZo5UDClzJC4hEYvF/7oX1pEFu4DsXbt2/SUtLe3PhFDpdX7m0uFENZdeRtZoNCtXr159ZqLqMlq5LkMETU1NgXl5edD543Q6nR8JGpFNJEwArMUAnDm/JAYLBGAymTzFYrFeaIbCd33g1mxYmOns7JRMnTpVJpPJpAMDA7LHjx/LTCaTh8lkkhuNRtnw8LDcZDKR/6V6vV5mMBgsb5PJJP7oo48Ot7a2/uRGLVvuI+C7XUx5tNcJ1w4fPpyUkpJy1NHl2ip/UhOB2WyWwbJRTk5OQn19/W9pd14oo4E1hdD19PDwMJ86dWqJl5cX3JUEHUEyODgoE4vFcjB86BjQUeATOofRaJQODw/LYO8DxBbgf0g30lmk0JlGOpYlrV6vt/w2GAzQuaSA3+DgoBw+RzqW5brRaLSUB/+DfJAL+YlsuA6/4frQ0JAlncFggOtP6gm/TSaTZGhoSAJlwRkMkIcOzo6TbInXJGgbZrZx165dn6alpf23Nbtw9nVBgzgaGKdPn16uUCiSjx07FgdzL7KDDEAnd5NZG/GdDfRY5TGnIyRGQbwa+BxtB9xYu94gH5kW0TKYu+DGkm8tvzUcSX6uu/isyZuM12n9xsXFqXJycqKF1o5JQwSw5p+bm5uUm5ub2NbWFsAEkrmNdyL2AdirXGIoMI2BzTB0zICWSTo9+YRrbLfR0te5bKEdqwyueynY6kYTMymDrttYBGQvlkLMR3t9ixcv/t/GxsbFQqun4IkgKytrg0qlggM+1wJ45FQYMtqRZUDa0IjxT/TSIFdl0/X08vKyeDiw7MWl/iQ4RpdFd35CkOQ6GzGMRRZ8dVymHHchAWgnTQTTp09/ePfu3We42oaz0gmSCBoaGhbBnX4qlSq+v79/GlkLJgbLDAbBNABeZIow2kjpLFBtLQfcZ3hBu+h1b7ZOTtKRMpgjtr0dl5mP/GbzCNg8Dlvy24rPZE9PEwHseBwYGBBcvxNMhdra2qadOHEiHs74a2lpeZl5np8th0lAWiANLqfPCMnI6CkBH1Ob0YJxXKcObPltIZpxBgOFpBre6jJz5sy73d3dv+JNIE+CJpwI4Gz/I0eOJFRWVkYybxaBkRJG+8HBwSfNJaMn/EGfDEMfRUWfDMR1jssTnjaLgdGCBNTAG6CnPvToby1YOJrrb63jWgs2WuvM1vKzAcKViGwGU8AZCI6LFi26evHixflCq+qEEgHc75+bmxt18uTJDc3NzfNpo2IeCEHuLycAUmvvP4uogxw+RlRnKYv2BCZy27Oj5/HWSMVZeDuzHNJmYq+hoaF1Go1mlTPrwKWsCSUCuoLwYA+lUhlbXFwcqdPpZrGNhvQ+ctJhyK5AZtxgrMbTOw25gOToNDRxsR2kAeXbGv0ndbbmETijbcwybGkLl/qzeSVCIR0myUdFRalUKhUuH3IxvHPnzi3LysqKLikpiezp6fkF5GFG0JlMSxs+vWpApgZs69hCOLiCxoPsj7fXo7FnRCdTLYIZ85NedWBeg7pb22dgbRpA56cJj5RFB0zZCIRMpcggwXZiEBebc2Qaerq3devWfV999dV2R5Znj2zBeASjVb68vPyNoqKiGCAFcmgHGTUJwLD+Dh0eVg2IcY61vk4b2UTHEOh96CN1MY+QnBjax3YApz2KHi0PlA94AtFCeXAHpFwu18tkMr1EIjFIpVKjVCrVw9vDw8Mgl8uNcF0ulxvEYrFBIpEYYUs0/Ofh4QH5LNdJHkgP16n8BplMBm+SBs58J3lBvuUN10E+lAmfJI+Hh4cR/oO6yeXyxwcOHNh08uTJd6B9bMfE8YmVPbJobwUwVigUKfHx8Rn2yHJkHsETAd14tVr9B7VaHQ1PDR5tRYD2HEgno91EcsikLe6pIxXAkG3+5JNP/jJ79uxr0AGhY4Hhjxg9dBzoEEboFNCxoMNAR4SOAZ3Jy8vLch3SwTWDwWCcMmWKEf6H73q93ujn5wfPWLN0Lie2y2FF1dTUvBkWFnaS7ajxiSZ52ksFkjUajUaDweAhFov/9Zw7hyFjm+BJRQSkabC3PScn510ghW+//day0YjN9SduLXwCcbAdMGkbXPynZkwDzN9///1rS5YsaeS/JNeVOH/+/PM3b94MhsfJkd2Z0FouG7KcicrGjRszDh06lOLMMrmWNSmJgG7cnTt3nlKr1VH5+fnRjY2NK2D/Ab2USNLSW5DHmj5wBY7PdDQZ1NXVLV25cuU/+JTv6rIOHDjwpw8//HA/tFMoQUIac/AGwDvRaDTBq1atEiTJT3oioAHv7Oz0y8/PjyooKIhpbW19BfYl0CMEfSOSUAKFzFFLo9EsDw0N/Zurd14+2wcH0CxcuLC9u7t7Bnh9tqwg8VkPNlkkbrFy5crTdXV1oY4uz175LkUENAjNzc0vwNShqKgo+vr160HMvftCIQIygpH61NTUrFqzZk2dvQp113w7duzY88UXX+ygSYC5OWuisAHdZmRkxCUmJuZOVB2sleuyREA3XKvVLiguLo4pLS2NIXsUIGZAOh8ZlZlBRToNLQ/SkbzjDTrSZcL38vLyNRERERprisPrP0Xg8uXLQStWrKh/8OCB5UlRxBNkI/zRlp7twZSM+GxBaiIvJSXlyJEjR1Ltke+sPG5BBDSYGo3m32H6oNFoom/evPnk8WJk/RmmD7AMSW9fJjEF+kgzvhTEJILS0tK1b731VhVf8t1JDmzUiY6OzmMeWgoY0ztT+T6rgiYWKJvc/AY2NWfOnI62trZ5YrHY8pw8ob7cjghoRVRWVr5eWFgYBTc7PXjwQEZfIwEeepmSBBzJ2jAfNzUxiaCkpOT369atKxeqwQi9Xtu2bdu7b9++bSPLdT97NsXI3X+WPRN87dEgG8HY9jE0NDQsCA4OviJ03NyaCGjllJWVvaVUKqNPnDixATonrD7QIwnbbj8+jkNjEkFBQcHbkZGRpUI3HCHXb+nSpWe0Wu1yQtjE22OeTM23Z8A8WOabb77ZuGnTpsNCxorUDYmAoSWz2SzNzs6GPQpRVVVVb7KN+jCaQGyAjzPzmUSQm5u7PjY29thkMB4h19Hb2/vR0NCQD1lFABIgT6nm814T+vZ4Ok6wdu3a6srKynAhY0TXDYlgDE3du3dvWnFx8buwHAnnJNJBKPjOx4YVJhFkZ2dHxcXFFUwWAxJyPcPCwr4lJ1uxHWPP55kVxBbAy0hNTd3z9ddf7xQyNsy6IRFw1BY8SKOkpCQqJycn9vLly6+CEfG9BAkubEZGxntJSUlKjtXCZFYQyMzMjEpOTs4n0wS+tx1DxwdbgACht7e3ac+ePfGbN2+edPpDIrCjK7W1tb0AQUbwFK5cuRJkhwjWLEAE6enpCe+//342XzJRjkik1WoXbd68+XBzc3Mwmerx4c3R2IaEhJzbvXv3ppCQkEuTEXMkgnFq7dKlS/Nh2Qo2Lul0ujkgjnb3SUCRGVikA1X0NYVC8X5ycrJinNXC7AwEdDrdlN27d+/Oz89P7O3ttcQOngTKxOKf3IdC38pMdMm2WxHSBQUFXUlOTs7evn37l5P5Ri4kAh67TENDw2vZ2dlwd+S7XV1dvmRnG/kkxgRGCC4quSeCfIfRau/evRvh6T08VgtFUQh0d3dPVSgUG4uKihKampp+TZ+XAMlogqCfW0iDCPoMDw+viIyMzHKVwC4SgYO6SVVV1arCwsLosrKyqPv3708FA6MPz4Bi6U1LxAD37dv3p23bth1wULVQLIVAdXX1UoVCsbm9vf03HR0dM/v7+y2HisJqEB1LmD17dk9AQECbr6+vbu7cuTffeOON0mXLlgny5iF7FYxEYC9yNuRTq9URx48fh41L6+FxYfB0XCAFMDb6HghwNb/88sutW7ZsEeSjs21o8qRN2tbW5mkymaYPDQ35ymSyu/PmzftBiOcH8A0wEgHfiFqRl5mZGQleQnl5+e/hOYDk6HVwUYEU0tLS/nPXrl1fOLlaWJybI4BEMEEGcOvWLa/q6uqooqKiqFOnTlluT4U56c6dO//86aefpk1QtbBYN0UAiUAAir9169Yvjh07BqQQExERUfnxxx//jwCqhVVwIwSQCASm7I6Ojueef/75GwKrFlbHxRFAInBxBWPzEAEuCCARcEEJ0yACLo4AEoGLKxibhwhwQQCJgAtKmAYRcHEEkAhcXMHYPESACwJIBFxQwjSIgIsjgETg4grG5iECXBBAIuCCEqZBBFwcASQCF1cwNg8R4IIAEgEXlDANIuDiCCARuLiCsXmIABcEkAi4oIRpEAEXR+D/Aba+sfvzItDUAAAAAElFTkSuQmCC;rotation=-45;" vertex="1" parent="1">
          <mxGeometry x="221.30163414971761" y="530.0016341497176" width="77.4" height="30" as="geometry" />
        </mxCell>
        <mxCell id="84sB6DKWZIwG1NnqUY4s-49" value="" style="shape=image;verticalLabelPosition=bottom;labelBackgroundColor=default;verticalAlign=top;aspect=fixed;imageAspect=0;image=data:image/png,iVBORw0KGgoAAAANSUhEUgAAANsAAABtCAYAAAAoEBQoAAAAAXNSR0IArs4c6QAAFdJJREFUeF7tXQtUk1e2BrRaBbW2tVJRUQLLSqUKVpFBRaWCz4DIIyHUoEGQIL5GW23xQa1tZ3TJzMWEhyLgI1pzZ6pznWHEt6iMLq7Lq4s714ojl9Fa9c5SL+ID1Ny7I7vr9J9EAvyPhOx/LVZC/vOfvc+3z3ce++xzflcXuggBQkAUBFxFkUJCCAFCwIXIRpWAEBAJASKbSECTGEKAyEZ1gBAQCQEim0hAkxhCgMhGdYAQEAkBIptIQJMYQoDIRnWAEBAJASKbSECTGEKAyEZ1gBAQCQEim0hAkxhCgMhGdYAQEAkBIptIQJMYQoDIRnWAEBAJASKbSECTGEKAyEZ1gBAQCQEim0hAkxhCgMhGdYAQEAkBIptIQJMYQoDIRnWAEBAJASKbSECTGEKAyEZ1gBAQCQEim0hAkxhCgMhGdYAQEAkBIptIQJMYQoDIRnWAEBAJASKbSECTGEKAyEZ1gBAQCQEim0hACyEmLy9v3ogRIy6GhIRcECJ/ypNfBIhs/OIpam5bt26dO3/+/O0BAQGXExISdiUkJBj8/PxuiKoECbMZAYcgW3V1dZfHjx8Peeutt+4OHjz4R5tL18ET5ubmzl22bNn2pqYmc0nd3NxcQkNDTyiVyt3p6eklrq6uzzo4BA5VPLsj25YtW1IuXbo0oq6ubvAPP/zg9/333/s9f/7cBStU586dXby8vOpkMtnV/v37X/f29v67QqEwvP/++zUOhTwPyur1+rmZmZnbAR9XV1cXk8nk0qVLF5fGxkaX1157zUUul3+rVqv3yOXyAzyIoyzaiYBdkK2iomL4gQMH5uzatWvO7du334ZKw72g1Ybf8R5ULiAeVDT4LTExcQ8Mo+Ry+cF2YuIwj8OcTavVFoHCgAXbw7148cJMOPjN09PzcVxcXJFKpdo9ZsyYvzhMATuYopKSrbS0NMFoNM45ePDgNC6ur7/+usuTJ0/MQyP2YgmHQyeoWJAOPkNDQ6umTZu297PPPvuNq6vr8w5mr58VR6fTaTIyMrbBj506dTKXH/ABkj179sz8HXs8xGfYsGE1SqWyZMaMGYbhw4df78j42FvZJCNbZmZmrl6vXwg9E7TKUCmwZUaiWQML0sJlqQfEYVRISEhlTk5O5pgxY/7d3kDnSx+9Xp+SmZm5FTCEC3syJB8QDDAFfAErHG7CfcBw/PjxlSqVqmTChAmlfn5+T/nSi/KxjIAkZPvoo4+OHDlyJByNjqTx8PBwefjwoVlTdpjITQctOHthJevevbvLo0ePzLfge1NTU6NOp0tLTU0t6YgVQKfTzc/IyCgEMkFP1tLFkhEJiUSNj483JiUl7ab5XUsotv2+qGSrqqoaGBISUtvU1OSKwxoc5kAR2DmYLRUIhk5AVC75sHdDWFauXJnzzTffLGs7TPb5pF6vT9VqtQUsiXCUACQCXLp27ery9Ok/d1pswwbPwwW9YO/evR9pNJrt0dHRu8eOHUvzOx5NLxrZsrKyPt2wYcPXJpPJLJMlBBAPSAcVhOsIwV4N08D/UImQYOyQEtIAAaHSIJkRq7CwsPKTJ09G8oid5Fnl5eWlabXafHZuxioFWOAwHb4D6bBxw3tsepwfI7YBAQH/mZCQsHv69OmGwMDAWskL7OAKiEK2kydPBoSFhf2Hm5ubK9fBgT0YtK7YGiNRuMa3hrW14RESF54DuevXr1+zevXq9Q5us5/UB7JlZGTko4MIGyLAlG2Q8AHEGokGxAOMcCjJDi1ZMsKQPDAw8HhycvLulJQUWL/r0I4noeqHKGR744036u/fv+/BNS77P7cnYgvMDi/hd5aMUKm4HjccOrF54vfDhw9PmTx58iGhABUzXyBbenp6vtAyWeLBiEQul+9RKpV7Z8+e/QehZXek/AUn29SpU/9YVlY2jZ2bsb0YgokGBWOi1wwm/ezcjtsKs8NR7jwNW2kgI+QNeaEOV65cGTpkyJD/cnRDikU2dgiPw1LArlevXg1KpXL77NmzDRMnTqT5XQsVSlCyrV+/fsXq1at/DcZConDd9UA8uGdpEu/l5VUfEBBwbuTIkeeHDh16+unTp/3Pnz8fUlFRMb6mpkYGkRJsT4ceTFxCQHLh8Al70pCQkLP79u2b3K9fv5euSwe9xCAb20giTOyIARoyuIYOHfrXpKQkAzhW3nvvPVq/s1CnBCNbVVXV26NHj76LhoEehu19wIjY46BeSIbFixdvSk5OLvrggw+s9j5Xr17t/9133ylWrly5EWRAz8XO3SAv+MNIClzkBVnwu0ajyd+2bVu6g/LMrDa6/sUoA3e+x8pkyQdrpMHBwadgGSElJaXY1dX1ZeAmXS6CkW358uVfbNq0aTWLMRvlgMZDJwbc8/DwaNi/f//UCRMmVNhqm9OnT4+ByPeampqh2KPBnA16PW4vyhLQ19f34dWrV99w5Mk+LGprtdqttmLVlnRc5xMSi/V04hof6w0GWUC8WbNm7YuLizPExMQ4fXymYGQbNGhQ3a1btwbA8BCMAEaD71xnB1aA+Pj43fv27UtqS4WAZ5YvX/5Vbm7uKnY4Cj0pEA5ICPLhO7v4W1BQkJaWllbYVplSPycG2bhlRPKxvRnYFP7HYb2lXs/Ly6shOjq6CDyao0aNOi81dlLIF4RsRUVFGo1G81PMHuta5vZ0cC86OvrE/v37J7YXAIPBEK1Sqb6DHgx6t8ePH5uzhO9AOFw/Qm/lpEmTKo4dOza+vXKleh4XtYWUb2l5AOThsgw0YFzHFXfJBed1uI7q7+9/OTExEeZ3pf7+/reE1N+e8haEbCEhIScrKyvHc4eNuLCKxoLK7+7u7tLQ0MCbHitWrNi4cePG5WyFYCNM2MgUqEg3btwY6OXl9Xd7Moqtuuj1+gVarTbP1vRtTccuteD8mF2rg3xxyM72eBhwYO0+pA0PDz8MC+cpKSmlbdXPUZ7jrZJjgU+ePPmLsLCwMywA7Lif68natGnToqVLl+byCVhwcPC58+fPj7YUqMyVk52dvW7t2rXZfMoXK6+CgoL0tLQ0vVjyhJCDdaNTp04m6O1gGSE6OvpPQsiSOk/eyVZSUqJKTk7eBQVj3cbsOhrMm6C3mTNnzs4dO3bM4RuEo0eP/iI8PPzMqxbKUWa3bt1cYKvJo0ePILrZrXPnzoCJW1NTU6dOnTq5NYeXwT4fiH5xc33ZXFvDzQSXq6sr5PXTn8lket78G2zUg/vmDXuQtlkP+PxZns1yzLfd3EAN83YZ0/Pnz02AX/fu3U21tbX979696843flLnN3DgwP+JiYnZFRsbC/GZVVLrw5d83sm2Zs2aVV988cVXqCAuiHLnbdCibdu2TaFWq7/lqzBsPoMHD667fv36gJbyflXAs6U1ppbyE/M+11Mopmy+ZCHGuAePO//z9/e/qFaroccr9fX1vcOXXCny4Z1sCxYsyM/Pz09DENkJNjcOEo488PX1FeQ4A7lc/ueDBw9GcncEcEHG3g8jVzB6BR0A1pw7YhkL9WPXuWCUYMnzJ5ZOQshh54WQP+u9xuifCRMmHJo3b57h448/3iGEDkLnyTvZIiIiysvLyydzh3Dsuhrc69at2536+vq+QhUwJSXlt0VFRYtamrdZi4K3FBUvlK625MvubmgeWv7T1iJb8rHXNNgowye7PGPJDh4eHs+io6MNSqVyz/Tp0/9sr2Xi6sU72by8vK7dvHnTBysERvlzh2RxcXEHjUbjTKGAys/P1yxYsMC8/NDSZWkfHTYWrEetpXyEuI9RMJA3uzfNUiyoEPKFztPankTuArmFdOb57jvvvHMzPj5+p1qt3jZq1Ki/Ca1ve/LnnWzu7u6mhoYGs07caHwMQIZ74AVcvXq1YF7AsrKyUTNmzDhv6zAQo0vQtQ2f+L09ALf3WbZlx8gYxLWlXru9ssV8nm2M2S1C3CAIdnMsOIxw8zB8Dw0N3R8bG7t3yZIlRjF1t1UW72Tr169fze3bt2Xs8WqoDC52AkBTp049VFZWNsVWRVubzta4QUsOEmutbWt14Cs9u16JIwZ2axFfcqTIBxsTNmwPh5HsPSAjp+E092wymeyviYmJO2fNmlUUFBR0V4oy2CqTd7JNnDjx0PHjxyPYSsyt0OBu79q16//ev3+/l62KtjbdwoULc7ds2bIQnmMdM+xxbzjEtbaZ0palg9bq1dr0lhxNrc1D6vTc+Sb3f+5mV7ZRZgmHzq4333zzXlxc3B6FQrHTkbb28E42jUaj2759u5Yd4lhzQly+fHl4QEDAJSEqw7hx445UVlaGQyvJkh29jGg49uQpHPrCfIgN7xJCP1vz5FZMbi9naz72kI6LPTvVwB4bvZBsD97cYJpmzpxpVKlUsP72b/ZQntbqwDvZsrOzV6xdu/bXlhSBig0XbofR6XSpqampgkStv/vuu7du3brlCfLYYSFbebnRLEAyjKdE/aV2kLCnHLOVk9tItNbwYqVn55xsj8WS6VUNSGho6ClwgCxevNgmZ5dY5WqLHN7JVlhYGJ+amvotes7YbS1cBceNG3e6oqJiXFsUf9UzxcXFMampqb/DIaOltOhq7tu3L2x8vNjY2AhhGi8aGxtNPXr0cHv27Jk5auTFixfmTwjkaP5EzNhIEvyOnxBpYo4+aZ7Ew/wCIkrg7A78xO/mSBMrUSUQLWLq2rWrOTIFvkPgSXMUyrPa2lrZjRs3+vGNH5/5WQsMgN+RZOxaKDR4Pj4+NbGxsSUxMTHFQUFBP/Cpj5R58U62U6dOjQ4LCzvHDiO5Dge2R8nKytrw5ZdfZvEJQu/evR88ePCgp6XTk1EvGK7AwvC6deuy1/3/xad8sfIqKSmZm5ycvF0see2R01I0Tp8+fZ5PmzatUK1Wl06aNOlce2TZ67O8kw0KOnbs2GOnT5+eyB5HgMet4fABFy+b15G68LWjNz4+vsRoNKq5ZGe9o6xD5Nq1a4N8fHz+214N9Cq9cnJykpcuXVrsSLoD9kg86NFmzZq1PzExsTQ2Nna/I5WjLboKQjadTjcnMzOzFA/bsXSQKtvSwZkglZWVoW0pAPvM1q1bY+bPn/876DmB6BjSxI1CQNnh4eHHjx49Oqm9cqV6vqCgQJ2WlmbXpz1znSJgi5EjR15UqVTbFi1alNccoC0VhKLKFYRsUAJvb++/wWuf2B6GDdnCdROs+ImJiTsMBoO6raX/9NNP1+fk5GQBwVjvJ+SH6zNsVAgYPTc3NzU9PV0QB01by9Ga5xyBbGgLPz+/+wqFYotCoSh1xtd7gV0FI9vnn3++ZsOGDdkINvfMEQxDYudzPXv2/IfRaJRHRkaetbXSweumli1bVlJVVTWCzROHjehNxEk4Rsr37dv33u3bt9+0VY49ptPr9WqtVtvuno27vIBl5QZBw+84SuB+wj022gNwhjNIEhMTi2JiYnZERkaeskcMxdRJMLJduHDBOzg4+Dqc688aj91Gzz1tCxa74cUYn3zyya9iY2N3jh49utoaGNXV1Z7l5eVxS5cu/Rc2DXoZ8XxDjEbgvhlHq9Vu0ev1mWKCzbcsPsjGXYMEErFeXNaZxWKIa5FgT25IWVhY2J9SU1NhHraP7zI7cn6CkQ1Ayc7O/uXatWs3cSME0O3Lnspk6egCMPSgQYOuBAYGXvX19b107969t6uqqobV1tYOq6+v74ln+uMZI3ioK8Y0cltfJHdYWNjZEydOjEV3u6MaUKfTJWdkZLTbQQI4scNttA8Ov4FQuJRjaQ8d2DcoKKgmKSkpNz4+vsjT0/NlcCxdP0NAULKBpMjIyIOHDh2ajkMQ1qjwHQmAUd7s+Y7QkrKv+OXajhtOxa7psWFOOLxEedXV1b5+fn7XHL0u8EU2tA3Oo3GebWmoCGkxINrHx8dFpVL9Si6X7/7www8vOzqeQusvONmgAO7u7g8bGhrckRxs9Dr0aNzYSUuvOQLDW9s0iS0xfLIvVIRj7VgHDRDbaDRGREVFHRYaWDHyh3dqa7Xadq2zWdpJz0ansLGJkLZHjx4uUVFRpRD8GxERcVSMcnYUGaKQraysLCQqKuos6ylE4llrPS0FoLKg41YLbpQIDHOAwDgEwsk/yIPF81WrVm3oKMbjs2eztOjMjg5mzJhRHhMTUzp37lxDR8FP7HKIQjYoFJxN8vXXX3+F5ABnCDcOEXo0IIm1nbrcuR/ky31JB1tpWAfMpEmTDh87dixCbICFlMcH2dhRBAzboUGExgpeliiTyWo1Gs1vp0+fXiyTyR4IWRZnyFs0sgGYZ86cGTZ+/PhLEDOIZ/BjD8S+3BCGftyhJTs/s7Sxkw1m5Qa/LlmyZPPmzZt/2dEMygfZABMWa5lM9kyhUGxSKBR7hNqR0dHsYGt5RCUbKPXjjz+6JyQk/P7UqVMR6LjA3oj7YgwM8bK2IxnTc93X+BzcLywsTIZ4O1sBcaR0SDZuQ4QNF4ZG4S4LPH6dO2SEYOyIiAg4GtwQHh5+zJEwcCRdRScbgpOenp6Tl5e3BP/nvhcaT1Rit2XgGh08gxXK0gQf7gcHB1du3rxZGxoaetGRDNIaXcFBsnDhwu3YGMEnHglnrYFivb/wsnqlUmlISEig9bDWAN/GtJKRDfTdu3evori4WFVeXj4DF0cxQBnuW9spzV0XgrT4Eo0RI0ZciIqK2p2VlbW5jZg4zGM6nU6TkZFh3ufFvoSedQrBMB0JBmn8/f3/olard8bFxRUPGDDg5csQ6BIFAUnJhiU8c+bMCKPRqDIYDKo7d+68y6043JArS8ioVCpDVFSUIT4+/o+iIGcHQuAtNsuWLdv65MkTszY4V0Vy4XDR29v7ulKp3BUXF7dj5MiRgpzTaQdw2L0KdkE2RMlkMr1WWFioPnfu3Ii6urpBdXV1PnV1dX5NTU2d0ZEC3jNPT8+bQ4YMuQKVaMCAAXWwk9cZ33aJr4zCnh4PAYLPPn36PJ45c+ZOpVK5c/LkyaftviY6gYJ2RTZreF+7dq1XfX29T48ePf4hk8nqnMAuNhURXhm1ZMmSAvZ05ClTphxISkralZSU9K82ZUKJREPAIcgmGhoOJgiP6wsKCjqr0Wh2y+VymofZsQ2JbHZsnJZUy8vLmzdmzJhjgYGBtS2lpfvSI0Bkk94GpIGTIEBkcxJDUzGlR4DIJr0NSAMnQYDI5iSGpmJKjwCRTXobkAZOggCRzUkMTcWUHgEim/Q2IA2cBAEim5MYmoopPQJENultQBo4CQJENicxNBVTegSIbNLbgDRwEgSIbE5iaCqm9AgQ2aS3AWngJAgQ2ZzE0FRM6REgsklvA9LASRAgsjmJoamY0iNAZJPeBqSBkyBAZHMSQ1MxpUeAyCa9DUgDJ0GAyOYkhqZiSo8AkU16G5AGToIAkc1JDE3FlB4BIpv0NiANnAQBIpuTGJqKKT0CRDbpbUAaOAkCRDYnMTQVU3oEiGzS24A0cBIEiGxOYmgqpvQIENmktwFp4CQI/B8z3f4EmFO1ZAAAAABJRU5ErkJggg==;rotation=-95;" vertex="1" parent="1">
          <mxGeometry x="580.34" y="390" width="80.37" height="40" as="geometry" />
        </mxCell>
        <mxCell id="84sB6DKWZIwG1NnqUY4s-50" value="run fight" style="text;strokeColor=none;align=center;fillColor=none;html=1;verticalAlign=middle;whiteSpace=wrap;rounded=0;" vertex="1" parent="1">
          <mxGeometry x="630" y="400" width="60" height="30" as="geometry" />
        </mxCell>
        <mxCell id="84sB6DKWZIwG1NnqUY4s-52" value="Rpg game" style="rounded=0;whiteSpace=wrap;html=1;" vertex="1" parent="1">
          <mxGeometry x="370" y="-140" width="190" height="50" as="geometry" />
        </mxCell>
        <mxCell id="84sB6DKWZIwG1NnqUY4s-53" style="edgeStyle=none;rounded=0;orthogonalLoop=1;jettySize=auto;html=1;exitX=0.5;exitY=1;exitDx=0;exitDy=0;entryX=0.905;entryY=0.058;entryDx=0;entryDy=0;entryPerimeter=0;" edge="1" parent="1" source="84sB6DKWZIwG1NnqUY4s-52" target="84sB6DKWZIwG1NnqUY4s-6">
          <mxGeometry relative="1" as="geometry" />
        </mxCell>
        <mxCell id="84sB6DKWZIwG1NnqUY4s-54" value="" style="shape=image;verticalLabelPosition=bottom;labelBackgroundColor=default;verticalAlign=top;aspect=fixed;imageAspect=0;image=data:image/png,iVBORw0KGgoAAAANSUhEUgAAANsAAABtCAYAAAAoEBQoAAAAAXNSR0IArs4c6QAAFdJJREFUeF7tXQtUk1e2BrRaBbW2tVJRUQLLSqUKVpFBRaWCz4DIIyHUoEGQIL5GW23xQa1tZ3TJzMWEhyLgI1pzZ6pznWHEt6iMLq7Lq4s714ojl9Fa9c5SL+ID1Ny7I7vr9J9EAvyPhOx/LVZC/vOfvc+3z3ce++xzflcXuggBQkAUBFxFkUJCCAFCwIXIRpWAEBAJASKbSECTGEKAyEZ1gBAQCQEim0hAkxhCgMhGdYAQEAkBIptIQJMYQoDIRnWAEBAJASKbSECTGEKAyEZ1gBAQCQEim0hAkxhCgMhGdYAQEAkBIptIQJMYQoDIRnWAEBAJASKbSECTGEKAyEZ1gBAQCQEim0hAkxhCgMhGdYAQEAkBIptIQJMYQoDIRnWAEBAJASKbSECTGEKAyEZ1gBAQCQEim0hAkxhCgMhGdYAQEAkBIptIQJMYQoDIRnWAEBAJASKbSECTGEKAyEZ1gBAQCQEim0hACyEmLy9v3ogRIy6GhIRcECJ/ypNfBIhs/OIpam5bt26dO3/+/O0BAQGXExISdiUkJBj8/PxuiKoECbMZAYcgW3V1dZfHjx8Peeutt+4OHjz4R5tL18ET5ubmzl22bNn2pqYmc0nd3NxcQkNDTyiVyt3p6eklrq6uzzo4BA5VPLsj25YtW1IuXbo0oq6ubvAPP/zg9/333/s9f/7cBStU586dXby8vOpkMtnV/v37X/f29v67QqEwvP/++zUOhTwPyur1+rmZmZnbAR9XV1cXk8nk0qVLF5fGxkaX1157zUUul3+rVqv3yOXyAzyIoyzaiYBdkK2iomL4gQMH5uzatWvO7du334ZKw72g1Ybf8R5ULiAeVDT4LTExcQ8Mo+Ry+cF2YuIwj8OcTavVFoHCgAXbw7148cJMOPjN09PzcVxcXJFKpdo9ZsyYvzhMATuYopKSrbS0NMFoNM45ePDgNC6ur7/+usuTJ0/MQyP2YgmHQyeoWJAOPkNDQ6umTZu297PPPvuNq6vr8w5mr58VR6fTaTIyMrbBj506dTKXH/ABkj179sz8HXs8xGfYsGE1SqWyZMaMGYbhw4df78j42FvZJCNbZmZmrl6vXwg9E7TKUCmwZUaiWQML0sJlqQfEYVRISEhlTk5O5pgxY/7d3kDnSx+9Xp+SmZm5FTCEC3syJB8QDDAFfAErHG7CfcBw/PjxlSqVqmTChAmlfn5+T/nSi/KxjIAkZPvoo4+OHDlyJByNjqTx8PBwefjwoVlTdpjITQctOHthJevevbvLo0ePzLfge1NTU6NOp0tLTU0t6YgVQKfTzc/IyCgEMkFP1tLFkhEJiUSNj483JiUl7ab5XUsotv2+qGSrqqoaGBISUtvU1OSKwxoc5kAR2DmYLRUIhk5AVC75sHdDWFauXJnzzTffLGs7TPb5pF6vT9VqtQUsiXCUACQCXLp27ery9Ok/d1pswwbPwwW9YO/evR9pNJrt0dHRu8eOHUvzOx5NLxrZsrKyPt2wYcPXJpPJLJMlBBAPSAcVhOsIwV4N08D/UImQYOyQEtIAAaHSIJkRq7CwsPKTJ09G8oid5Fnl5eWlabXafHZuxioFWOAwHb4D6bBxw3tsepwfI7YBAQH/mZCQsHv69OmGwMDAWskL7OAKiEK2kydPBoSFhf2Hm5ubK9fBgT0YtK7YGiNRuMa3hrW14RESF54DuevXr1+zevXq9Q5us5/UB7JlZGTko4MIGyLAlG2Q8AHEGokGxAOMcCjJDi1ZMsKQPDAw8HhycvLulJQUWL/r0I4noeqHKGR744036u/fv+/BNS77P7cnYgvMDi/hd5aMUKm4HjccOrF54vfDhw9PmTx58iGhABUzXyBbenp6vtAyWeLBiEQul+9RKpV7Z8+e/QehZXek/AUn29SpU/9YVlY2jZ2bsb0YgokGBWOi1wwm/ezcjtsKs8NR7jwNW2kgI+QNeaEOV65cGTpkyJD/cnRDikU2dgiPw1LArlevXg1KpXL77NmzDRMnTqT5XQsVSlCyrV+/fsXq1at/DcZConDd9UA8uGdpEu/l5VUfEBBwbuTIkeeHDh16+unTp/3Pnz8fUlFRMb6mpkYGkRJsT4ceTFxCQHLh8Al70pCQkLP79u2b3K9fv5euSwe9xCAb20giTOyIARoyuIYOHfrXpKQkAzhW3nvvPVq/s1CnBCNbVVXV26NHj76LhoEehu19wIjY46BeSIbFixdvSk5OLvrggw+s9j5Xr17t/9133ylWrly5EWRAz8XO3SAv+MNIClzkBVnwu0ajyd+2bVu6g/LMrDa6/sUoA3e+x8pkyQdrpMHBwadgGSElJaXY1dX1ZeAmXS6CkW358uVfbNq0aTWLMRvlgMZDJwbc8/DwaNi/f//UCRMmVNhqm9OnT4+ByPeampqh2KPBnA16PW4vyhLQ19f34dWrV99w5Mk+LGprtdqttmLVlnRc5xMSi/V04hof6w0GWUC8WbNm7YuLizPExMQ4fXymYGQbNGhQ3a1btwbA8BCMAEaD71xnB1aA+Pj43fv27UtqS4WAZ5YvX/5Vbm7uKnY4Cj0pEA5ICPLhO7v4W1BQkJaWllbYVplSPycG2bhlRPKxvRnYFP7HYb2lXs/Ly6shOjq6CDyao0aNOi81dlLIF4RsRUVFGo1G81PMHuta5vZ0cC86OvrE/v37J7YXAIPBEK1Sqb6DHgx6t8ePH5uzhO9AOFw/Qm/lpEmTKo4dOza+vXKleh4XtYWUb2l5AOThsgw0YFzHFXfJBed1uI7q7+9/OTExEeZ3pf7+/reE1N+e8haEbCEhIScrKyvHc4eNuLCKxoLK7+7u7tLQ0MCbHitWrNi4cePG5WyFYCNM2MgUqEg3btwY6OXl9Xd7Moqtuuj1+gVarTbP1vRtTccuteD8mF2rg3xxyM72eBhwYO0+pA0PDz8MC+cpKSmlbdXPUZ7jrZJjgU+ePPmLsLCwMywA7Lif68natGnToqVLl+byCVhwcPC58+fPj7YUqMyVk52dvW7t2rXZfMoXK6+CgoL0tLQ0vVjyhJCDdaNTp04m6O1gGSE6OvpPQsiSOk/eyVZSUqJKTk7eBQVj3cbsOhrMm6C3mTNnzs4dO3bM4RuEo0eP/iI8PPzMqxbKUWa3bt1cYKvJo0ePILrZrXPnzoCJW1NTU6dOnTq5NYeXwT4fiH5xc33ZXFvDzQSXq6sr5PXTn8lket78G2zUg/vmDXuQtlkP+PxZns1yzLfd3EAN83YZ0/Pnz02AX/fu3U21tbX979696843flLnN3DgwP+JiYnZFRsbC/GZVVLrw5d83sm2Zs2aVV988cVXqCAuiHLnbdCibdu2TaFWq7/lqzBsPoMHD667fv36gJbyflXAs6U1ppbyE/M+11Mopmy+ZCHGuAePO//z9/e/qFaroccr9fX1vcOXXCny4Z1sCxYsyM/Pz09DENkJNjcOEo488PX1FeQ4A7lc/ueDBw9GcncEcEHG3g8jVzB6BR0A1pw7YhkL9WPXuWCUYMnzJ5ZOQshh54WQP+u9xuifCRMmHJo3b57h448/3iGEDkLnyTvZIiIiysvLyydzh3Dsuhrc69at2536+vq+QhUwJSXlt0VFRYtamrdZi4K3FBUvlK625MvubmgeWv7T1iJb8rHXNNgowye7PGPJDh4eHs+io6MNSqVyz/Tp0/9sr2Xi6sU72by8vK7dvHnTBysERvlzh2RxcXEHjUbjTKGAys/P1yxYsMC8/NDSZWkfHTYWrEetpXyEuI9RMJA3uzfNUiyoEPKFztPankTuArmFdOb57jvvvHMzPj5+p1qt3jZq1Ki/Ca1ve/LnnWzu7u6mhoYGs07caHwMQIZ74AVcvXq1YF7AsrKyUTNmzDhv6zAQo0vQtQ2f+L09ALf3WbZlx8gYxLWlXru9ssV8nm2M2S1C3CAIdnMsOIxw8zB8Dw0N3R8bG7t3yZIlRjF1t1UW72Tr169fze3bt2Xs8WqoDC52AkBTp049VFZWNsVWRVubzta4QUsOEmutbWt14Cs9u16JIwZ2axFfcqTIBxsTNmwPh5HsPSAjp+E092wymeyviYmJO2fNmlUUFBR0V4oy2CqTd7JNnDjx0PHjxyPYSsyt0OBu79q16//ev3+/l62KtjbdwoULc7ds2bIQnmMdM+xxbzjEtbaZ0palg9bq1dr0lhxNrc1D6vTc+Sb3f+5mV7ZRZgmHzq4333zzXlxc3B6FQrHTkbb28E42jUaj2759u5Yd4lhzQly+fHl4QEDAJSEqw7hx445UVlaGQyvJkh29jGg49uQpHPrCfIgN7xJCP1vz5FZMbi9naz72kI6LPTvVwB4bvZBsD97cYJpmzpxpVKlUsP72b/ZQntbqwDvZsrOzV6xdu/bXlhSBig0XbofR6XSpqampgkStv/vuu7du3brlCfLYYSFbebnRLEAyjKdE/aV2kLCnHLOVk9tItNbwYqVn55xsj8WS6VUNSGho6ClwgCxevNgmZ5dY5WqLHN7JVlhYGJ+amvotes7YbS1cBceNG3e6oqJiXFsUf9UzxcXFMampqb/DIaOltOhq7tu3L2x8vNjY2AhhGi8aGxtNPXr0cHv27Jk5auTFixfmTwjkaP5EzNhIEvyOnxBpYo4+aZ7Ew/wCIkrg7A78xO/mSBMrUSUQLWLq2rWrOTIFvkPgSXMUyrPa2lrZjRs3+vGNH5/5WQsMgN+RZOxaKDR4Pj4+NbGxsSUxMTHFQUFBP/Cpj5R58U62U6dOjQ4LCzvHDiO5Dge2R8nKytrw5ZdfZvEJQu/evR88ePCgp6XTk1EvGK7AwvC6deuy1/3/xad8sfIqKSmZm5ycvF0see2R01I0Tp8+fZ5PmzatUK1Wl06aNOlce2TZ67O8kw0KOnbs2GOnT5+eyB5HgMet4fABFy+b15G68LWjNz4+vsRoNKq5ZGe9o6xD5Nq1a4N8fHz+214N9Cq9cnJykpcuXVrsSLoD9kg86NFmzZq1PzExsTQ2Nna/I5WjLboKQjadTjcnMzOzFA/bsXSQKtvSwZkglZWVoW0pAPvM1q1bY+bPn/876DmB6BjSxI1CQNnh4eHHjx49Oqm9cqV6vqCgQJ2WlmbXpz1znSJgi5EjR15UqVTbFi1alNccoC0VhKLKFYRsUAJvb++/wWuf2B6GDdnCdROs+ImJiTsMBoO6raX/9NNP1+fk5GQBwVjvJ+SH6zNsVAgYPTc3NzU9PV0QB01by9Ga5xyBbGgLPz+/+wqFYotCoSh1xtd7gV0FI9vnn3++ZsOGDdkINvfMEQxDYudzPXv2/IfRaJRHRkaetbXSweumli1bVlJVVTWCzROHjehNxEk4Rsr37dv33u3bt9+0VY49ptPr9WqtVtvuno27vIBl5QZBw+84SuB+wj022gNwhjNIEhMTi2JiYnZERkaeskcMxdRJMLJduHDBOzg4+Dqc688aj91Gzz1tCxa74cUYn3zyya9iY2N3jh49utoaGNXV1Z7l5eVxS5cu/Rc2DXoZ8XxDjEbgvhlHq9Vu0ev1mWKCzbcsPsjGXYMEErFeXNaZxWKIa5FgT25IWVhY2J9SU1NhHraP7zI7cn6CkQ1Ayc7O/uXatWs3cSME0O3Lnspk6egCMPSgQYOuBAYGXvX19b107969t6uqqobV1tYOq6+v74ln+uMZI3ioK8Y0cltfJHdYWNjZEydOjEV3u6MaUKfTJWdkZLTbQQI4scNttA8Ov4FQuJRjaQ8d2DcoKKgmKSkpNz4+vsjT0/NlcCxdP0NAULKBpMjIyIOHDh2ajkMQ1qjwHQmAUd7s+Y7QkrKv+OXajhtOxa7psWFOOLxEedXV1b5+fn7XHL0u8EU2tA3Oo3GebWmoCGkxINrHx8dFpVL9Si6X7/7www8vOzqeQusvONmgAO7u7g8bGhrckRxs9Dr0aNzYSUuvOQLDW9s0iS0xfLIvVIRj7VgHDRDbaDRGREVFHRYaWDHyh3dqa7Xadq2zWdpJz0ansLGJkLZHjx4uUVFRpRD8GxERcVSMcnYUGaKQraysLCQqKuos6ylE4llrPS0FoLKg41YLbpQIDHOAwDgEwsk/yIPF81WrVm3oKMbjs2eztOjMjg5mzJhRHhMTUzp37lxDR8FP7HKIQjYoFJxN8vXXX3+F5ABnCDcOEXo0IIm1nbrcuR/ky31JB1tpWAfMpEmTDh87dixCbICFlMcH2dhRBAzboUGExgpeliiTyWo1Gs1vp0+fXiyTyR4IWRZnyFs0sgGYZ86cGTZ+/PhLEDOIZ/BjD8S+3BCGftyhJTs/s7Sxkw1m5Qa/LlmyZPPmzZt/2dEMygfZABMWa5lM9kyhUGxSKBR7hNqR0dHsYGt5RCUbKPXjjz+6JyQk/P7UqVMR6LjA3oj7YgwM8bK2IxnTc93X+BzcLywsTIZ4O1sBcaR0SDZuQ4QNF4ZG4S4LPH6dO2SEYOyIiAg4GtwQHh5+zJEwcCRdRScbgpOenp6Tl5e3BP/nvhcaT1Rit2XgGh08gxXK0gQf7gcHB1du3rxZGxoaetGRDNIaXcFBsnDhwu3YGMEnHglnrYFivb/wsnqlUmlISEig9bDWAN/GtJKRDfTdu3evori4WFVeXj4DF0cxQBnuW9spzV0XgrT4Eo0RI0ZciIqK2p2VlbW5jZg4zGM6nU6TkZFh3ufFvoSedQrBMB0JBmn8/f3/olard8bFxRUPGDDg5csQ6BIFAUnJhiU8c+bMCKPRqDIYDKo7d+68y6043JArS8ioVCpDVFSUIT4+/o+iIGcHQuAtNsuWLdv65MkTszY4V0Vy4XDR29v7ulKp3BUXF7dj5MiRgpzTaQdw2L0KdkE2RMlkMr1WWFioPnfu3Ii6urpBdXV1PnV1dX5NTU2d0ZEC3jNPT8+bQ4YMuQKVaMCAAXWwk9cZ33aJr4zCnh4PAYLPPn36PJ45c+ZOpVK5c/LkyaftviY6gYJ2RTZreF+7dq1XfX29T48ePf4hk8nqnMAuNhURXhm1ZMmSAvZ05ClTphxISkralZSU9K82ZUKJREPAIcgmGhoOJgiP6wsKCjqr0Wh2y+VymofZsQ2JbHZsnJZUy8vLmzdmzJhjgYGBtS2lpfvSI0Bkk94GpIGTIEBkcxJDUzGlR4DIJr0NSAMnQYDI5iSGpmJKjwCRTXobkAZOggCRzUkMTcWUHgEim/Q2IA2cBAEim5MYmoopPQJENultQBo4CQJENicxNBVTegSIbNLbgDRwEgSIbE5iaCqm9AgQ2aS3AWngJAgQ2ZzE0FRM6REgsklvA9LASRAgsjmJoamY0iNAZJPeBqSBkyBAZHMSQ1MxpUeAyCa9DUgDJ0GAyOYkhqZiSo8AkU16G5AGToIAkc1JDE3FlB4BIpv0NiANnAQBIpuTGJqKKT0CRDbpbUAaOAkCRDYnMTQVU3oEiGzS24A0cBIEiGxOYmgqpvQIENmktwFp4CQI/B8z3f4EmFO1ZAAAAABJRU5ErkJggg==;rotation=-60;direction=west;" vertex="1" parent="1">
          <mxGeometry x="360.00124748414953" y="-10.004801202230055" width="80.37" height="40" as="geometry" />
        </mxCell>
        <mxCell id="84sB6DKWZIwG1NnqUY4s-58" value="call fight" style="text;strokeColor=none;align=center;fillColor=none;html=1;verticalAlign=middle;whiteSpace=wrap;rounded=0;" vertex="1" parent="1">
          <mxGeometry x="330" y="-20" width="60" height="30" as="geometry" />
        </mxCell>
        <mxCell id="84sB6DKWZIwG1NnqUY4s-59" value="" style="shape=image;verticalLabelPosition=bottom;labelBackgroundColor=default;verticalAlign=top;aspect=fixed;imageAspect=0;image=data:image/png,iVBORw0KGgoAAAANSUhEUgAAANsAAABtCAYAAAAoEBQoAAAAAXNSR0IArs4c6QAAFdJJREFUeF7tXQtUk1e2BrRaBbW2tVJRUQLLSqUKVpFBRaWCz4DIIyHUoEGQIL5GW23xQa1tZ3TJzMWEhyLgI1pzZ6pznWHEt6iMLq7Lq4s714ojl9Fa9c5SL+ID1Ny7I7vr9J9EAvyPhOx/LVZC/vOfvc+3z3ce++xzflcXuggBQkAUBFxFkUJCCAFCwIXIRpWAEBAJASKbSECTGEKAyEZ1gBAQCQEim0hAkxhCgMhGdYAQEAkBIptIQJMYQoDIRnWAEBAJASKbSECTGEKAyEZ1gBAQCQEim0hAkxhCgMhGdYAQEAkBIptIQJMYQoDIRnWAEBAJASKbSECTGEKAyEZ1gBAQCQEim0hAkxhCgMhGdYAQEAkBIptIQJMYQoDIRnWAEBAJASKbSECTGEKAyEZ1gBAQCQEim0hAkxhCgMhGdYAQEAkBIptIQJMYQoDIRnWAEBAJASKbSECTGEKAyEZ1gBAQCQEim0hACyEmLy9v3ogRIy6GhIRcECJ/ypNfBIhs/OIpam5bt26dO3/+/O0BAQGXExISdiUkJBj8/PxuiKoECbMZAYcgW3V1dZfHjx8Peeutt+4OHjz4R5tL18ET5ubmzl22bNn2pqYmc0nd3NxcQkNDTyiVyt3p6eklrq6uzzo4BA5VPLsj25YtW1IuXbo0oq6ubvAPP/zg9/333/s9f/7cBStU586dXby8vOpkMtnV/v37X/f29v67QqEwvP/++zUOhTwPyur1+rmZmZnbAR9XV1cXk8nk0qVLF5fGxkaX1157zUUul3+rVqv3yOXyAzyIoyzaiYBdkK2iomL4gQMH5uzatWvO7du334ZKw72g1Ybf8R5ULiAeVDT4LTExcQ8Mo+Ry+cF2YuIwj8OcTavVFoHCgAXbw7148cJMOPjN09PzcVxcXJFKpdo9ZsyYvzhMATuYopKSrbS0NMFoNM45ePDgNC6ur7/+usuTJ0/MQyP2YgmHQyeoWJAOPkNDQ6umTZu297PPPvuNq6vr8w5mr58VR6fTaTIyMrbBj506dTKXH/ABkj179sz8HXs8xGfYsGE1SqWyZMaMGYbhw4df78j42FvZJCNbZmZmrl6vXwg9E7TKUCmwZUaiWQML0sJlqQfEYVRISEhlTk5O5pgxY/7d3kDnSx+9Xp+SmZm5FTCEC3syJB8QDDAFfAErHG7CfcBw/PjxlSqVqmTChAmlfn5+T/nSi/KxjIAkZPvoo4+OHDlyJByNjqTx8PBwefjwoVlTdpjITQctOHthJevevbvLo0ePzLfge1NTU6NOp0tLTU0t6YgVQKfTzc/IyCgEMkFP1tLFkhEJiUSNj483JiUl7ab5XUsotv2+qGSrqqoaGBISUtvU1OSKwxoc5kAR2DmYLRUIhk5AVC75sHdDWFauXJnzzTffLGs7TPb5pF6vT9VqtQUsiXCUACQCXLp27ery9Ok/d1pswwbPwwW9YO/evR9pNJrt0dHRu8eOHUvzOx5NLxrZsrKyPt2wYcPXJpPJLJMlBBAPSAcVhOsIwV4N08D/UImQYOyQEtIAAaHSIJkRq7CwsPKTJ09G8oid5Fnl5eWlabXafHZuxioFWOAwHb4D6bBxw3tsepwfI7YBAQH/mZCQsHv69OmGwMDAWskL7OAKiEK2kydPBoSFhf2Hm5ubK9fBgT0YtK7YGiNRuMa3hrW14RESF54DuevXr1+zevXq9Q5us5/UB7JlZGTko4MIGyLAlG2Q8AHEGokGxAOMcCjJDi1ZMsKQPDAw8HhycvLulJQUWL/r0I4noeqHKGR744036u/fv+/BNS77P7cnYgvMDi/hd5aMUKm4HjccOrF54vfDhw9PmTx58iGhABUzXyBbenp6vtAyWeLBiEQul+9RKpV7Z8+e/QehZXek/AUn29SpU/9YVlY2jZ2bsb0YgokGBWOi1wwm/ezcjtsKs8NR7jwNW2kgI+QNeaEOV65cGTpkyJD/cnRDikU2dgiPw1LArlevXg1KpXL77NmzDRMnTqT5XQsVSlCyrV+/fsXq1at/DcZConDd9UA8uGdpEu/l5VUfEBBwbuTIkeeHDh16+unTp/3Pnz8fUlFRMb6mpkYGkRJsT4ceTFxCQHLh8Al70pCQkLP79u2b3K9fv5euSwe9xCAb20giTOyIARoyuIYOHfrXpKQkAzhW3nvvPVq/s1CnBCNbVVXV26NHj76LhoEehu19wIjY46BeSIbFixdvSk5OLvrggw+s9j5Xr17t/9133ylWrly5EWRAz8XO3SAv+MNIClzkBVnwu0ajyd+2bVu6g/LMrDa6/sUoA3e+x8pkyQdrpMHBwadgGSElJaXY1dX1ZeAmXS6CkW358uVfbNq0aTWLMRvlgMZDJwbc8/DwaNi/f//UCRMmVNhqm9OnT4+ByPeampqh2KPBnA16PW4vyhLQ19f34dWrV99w5Mk+LGprtdqttmLVlnRc5xMSi/V04hof6w0GWUC8WbNm7YuLizPExMQ4fXymYGQbNGhQ3a1btwbA8BCMAEaD71xnB1aA+Pj43fv27UtqS4WAZ5YvX/5Vbm7uKnY4Cj0pEA5ICPLhO7v4W1BQkJaWllbYVplSPycG2bhlRPKxvRnYFP7HYb2lXs/Ly6shOjq6CDyao0aNOi81dlLIF4RsRUVFGo1G81PMHuta5vZ0cC86OvrE/v37J7YXAIPBEK1Sqb6DHgx6t8ePH5uzhO9AOFw/Qm/lpEmTKo4dOza+vXKleh4XtYWUb2l5AOThsgw0YFzHFXfJBed1uI7q7+9/OTExEeZ3pf7+/reE1N+e8haEbCEhIScrKyvHc4eNuLCKxoLK7+7u7tLQ0MCbHitWrNi4cePG5WyFYCNM2MgUqEg3btwY6OXl9Xd7Moqtuuj1+gVarTbP1vRtTccuteD8mF2rg3xxyM72eBhwYO0+pA0PDz8MC+cpKSmlbdXPUZ7jrZJjgU+ePPmLsLCwMywA7Lif68natGnToqVLl+byCVhwcPC58+fPj7YUqMyVk52dvW7t2rXZfMoXK6+CgoL0tLQ0vVjyhJCDdaNTp04m6O1gGSE6OvpPQsiSOk/eyVZSUqJKTk7eBQVj3cbsOhrMm6C3mTNnzs4dO3bM4RuEo0eP/iI8PPzMqxbKUWa3bt1cYKvJo0ePILrZrXPnzoCJW1NTU6dOnTq5NYeXwT4fiH5xc33ZXFvDzQSXq6sr5PXTn8lket78G2zUg/vmDXuQtlkP+PxZns1yzLfd3EAN83YZ0/Pnz02AX/fu3U21tbX979696843flLnN3DgwP+JiYnZFRsbC/GZVVLrw5d83sm2Zs2aVV988cVXqCAuiHLnbdCibdu2TaFWq7/lqzBsPoMHD667fv36gJbyflXAs6U1ppbyE/M+11Mopmy+ZCHGuAePO//z9/e/qFaroccr9fX1vcOXXCny4Z1sCxYsyM/Pz09DENkJNjcOEo488PX1FeQ4A7lc/ueDBw9GcncEcEHG3g8jVzB6BR0A1pw7YhkL9WPXuWCUYMnzJ5ZOQshh54WQP+u9xuifCRMmHJo3b57h448/3iGEDkLnyTvZIiIiysvLyydzh3Dsuhrc69at2536+vq+QhUwJSXlt0VFRYtamrdZi4K3FBUvlK625MvubmgeWv7T1iJb8rHXNNgowye7PGPJDh4eHs+io6MNSqVyz/Tp0/9sr2Xi6sU72by8vK7dvHnTBysERvlzh2RxcXEHjUbjTKGAys/P1yxYsMC8/NDSZWkfHTYWrEetpXyEuI9RMJA3uzfNUiyoEPKFztPankTuArmFdOb57jvvvHMzPj5+p1qt3jZq1Ki/Ca1ve/LnnWzu7u6mhoYGs07caHwMQIZ74AVcvXq1YF7AsrKyUTNmzDhv6zAQo0vQtQ2f+L09ALf3WbZlx8gYxLWlXru9ssV8nm2M2S1C3CAIdnMsOIxw8zB8Dw0N3R8bG7t3yZIlRjF1t1UW72Tr169fze3bt2Xs8WqoDC52AkBTp049VFZWNsVWRVubzta4QUsOEmutbWt14Cs9u16JIwZ2axFfcqTIBxsTNmwPh5HsPSAjp+E092wymeyviYmJO2fNmlUUFBR0V4oy2CqTd7JNnDjx0PHjxyPYSsyt0OBu79q16//ev3+/l62KtjbdwoULc7ds2bIQnmMdM+xxbzjEtbaZ0palg9bq1dr0lhxNrc1D6vTc+Sb3f+5mV7ZRZgmHzq4333zzXlxc3B6FQrHTkbb28E42jUaj2759u5Yd4lhzQly+fHl4QEDAJSEqw7hx445UVlaGQyvJkh29jGg49uQpHPrCfIgN7xJCP1vz5FZMbi9naz72kI6LPTvVwB4bvZBsD97cYJpmzpxpVKlUsP72b/ZQntbqwDvZsrOzV6xdu/bXlhSBig0XbofR6XSpqampgkStv/vuu7du3brlCfLYYSFbebnRLEAyjKdE/aV2kLCnHLOVk9tItNbwYqVn55xsj8WS6VUNSGho6ClwgCxevNgmZ5dY5WqLHN7JVlhYGJ+amvotes7YbS1cBceNG3e6oqJiXFsUf9UzxcXFMampqb/DIaOltOhq7tu3L2x8vNjY2AhhGi8aGxtNPXr0cHv27Jk5auTFixfmTwjkaP5EzNhIEvyOnxBpYo4+aZ7Ew/wCIkrg7A78xO/mSBMrUSUQLWLq2rWrOTIFvkPgSXMUyrPa2lrZjRs3+vGNH5/5WQsMgN+RZOxaKDR4Pj4+NbGxsSUxMTHFQUFBP/Cpj5R58U62U6dOjQ4LCzvHDiO5Dge2R8nKytrw5ZdfZvEJQu/evR88ePCgp6XTk1EvGK7AwvC6deuy1/3/xad8sfIqKSmZm5ycvF0see2R01I0Tp8+fZ5PmzatUK1Wl06aNOlce2TZ67O8kw0KOnbs2GOnT5+eyB5HgMet4fABFy+b15G68LWjNz4+vsRoNKq5ZGe9o6xD5Nq1a4N8fHz+214N9Cq9cnJykpcuXVrsSLoD9kg86NFmzZq1PzExsTQ2Nna/I5WjLboKQjadTjcnMzOzFA/bsXSQKtvSwZkglZWVoW0pAPvM1q1bY+bPn/876DmB6BjSxI1CQNnh4eHHjx49Oqm9cqV6vqCgQJ2WlmbXpz1znSJgi5EjR15UqVTbFi1alNccoC0VhKLKFYRsUAJvb++/wWuf2B6GDdnCdROs+ImJiTsMBoO6raX/9NNP1+fk5GQBwVjvJ+SH6zNsVAgYPTc3NzU9PV0QB01by9Ga5xyBbGgLPz+/+wqFYotCoSh1xtd7gV0FI9vnn3++ZsOGDdkINvfMEQxDYudzPXv2/IfRaJRHRkaetbXSweumli1bVlJVVTWCzROHjehNxEk4Rsr37dv33u3bt9+0VY49ptPr9WqtVtvuno27vIBl5QZBw+84SuB+wj022gNwhjNIEhMTi2JiYnZERkaeskcMxdRJMLJduHDBOzg4+Dqc688aj91Gzz1tCxa74cUYn3zyya9iY2N3jh49utoaGNXV1Z7l5eVxS5cu/Rc2DXoZ8XxDjEbgvhlHq9Vu0ev1mWKCzbcsPsjGXYMEErFeXNaZxWKIa5FgT25IWVhY2J9SU1NhHraP7zI7cn6CkQ1Ayc7O/uXatWs3cSME0O3Lnspk6egCMPSgQYOuBAYGXvX19b107969t6uqqobV1tYOq6+v74ln+uMZI3ioK8Y0cltfJHdYWNjZEydOjEV3u6MaUKfTJWdkZLTbQQI4scNttA8Ov4FQuJRjaQ8d2DcoKKgmKSkpNz4+vsjT0/NlcCxdP0NAULKBpMjIyIOHDh2ajkMQ1qjwHQmAUd7s+Y7QkrKv+OXajhtOxa7psWFOOLxEedXV1b5+fn7XHL0u8EU2tA3Oo3GebWmoCGkxINrHx8dFpVL9Si6X7/7www8vOzqeQusvONmgAO7u7g8bGhrckRxs9Dr0aNzYSUuvOQLDW9s0iS0xfLIvVIRj7VgHDRDbaDRGREVFHRYaWDHyh3dqa7Xadq2zWdpJz0ansLGJkLZHjx4uUVFRpRD8GxERcVSMcnYUGaKQraysLCQqKuos6ylE4llrPS0FoLKg41YLbpQIDHOAwDgEwsk/yIPF81WrVm3oKMbjs2eztOjMjg5mzJhRHhMTUzp37lxDR8FP7HKIQjYoFJxN8vXXX3+F5ABnCDcOEXo0IIm1nbrcuR/ky31JB1tpWAfMpEmTDh87dixCbICFlMcH2dhRBAzboUGExgpeliiTyWo1Gs1vp0+fXiyTyR4IWRZnyFs0sgGYZ86cGTZ+/PhLEDOIZ/BjD8S+3BCGftyhJTs/s7Sxkw1m5Qa/LlmyZPPmzZt/2dEMygfZABMWa5lM9kyhUGxSKBR7hNqR0dHsYGt5RCUbKPXjjz+6JyQk/P7UqVMR6LjA3oj7YgwM8bK2IxnTc93X+BzcLywsTIZ4O1sBcaR0SDZuQ4QNF4ZG4S4LPH6dO2SEYOyIiAg4GtwQHh5+zJEwcCRdRScbgpOenp6Tl5e3BP/nvhcaT1Rit2XgGh08gxXK0gQf7gcHB1du3rxZGxoaetGRDNIaXcFBsnDhwu3YGMEnHglnrYFivb/wsnqlUmlISEig9bDWAN/GtJKRDfTdu3evori4WFVeXj4DF0cxQBnuW9spzV0XgrT4Eo0RI0ZciIqK2p2VlbW5jZg4zGM6nU6TkZFh3ufFvoSedQrBMB0JBmn8/f3/olard8bFxRUPGDDg5csQ6BIFAUnJhiU8c+bMCKPRqDIYDKo7d+68y6043JArS8ioVCpDVFSUIT4+/o+iIGcHQuAtNsuWLdv65MkTszY4V0Vy4XDR29v7ulKp3BUXF7dj5MiRgpzTaQdw2L0KdkE2RMlkMr1WWFioPnfu3Ii6urpBdXV1PnV1dX5NTU2d0ZEC3jNPT8+bQ4YMuQKVaMCAAXWwk9cZ33aJr4zCnh4PAYLPPn36PJ45c+ZOpVK5c/LkyaftviY6gYJ2RTZreF+7dq1XfX29T48ePf4hk8nqnMAuNhURXhm1ZMmSAvZ05ClTphxISkralZSU9K82ZUKJREPAIcgmGhoOJgiP6wsKCjqr0Wh2y+VymofZsQ2JbHZsnJZUy8vLmzdmzJhjgYGBtS2lpfvSI0Bkk94GpIGTIEBkcxJDUzGlR4DIJr0NSAMnQYDI5iSGpmJKjwCRTXobkAZOggCRzUkMTcWUHgEim/Q2IA2cBAEim5MYmoopPQJENultQBo4CQJENicxNBVTegSIbNLbgDRwEgSIbE5iaCqm9AgQ2aS3AWngJAgQ2ZzE0FRM6REgsklvA9LASRAgsjmJoamY0iNAZJPeBqSBkyBAZHMSQ1MxpUeAyCa9DUgDJ0GAyOYkhqZiSo8AkU16G5AGToIAkc1JDE3FlB4BIpv0NiANnAQBIpuTGJqKKT0CRDbpbUAaOAkCRDYnMTQVU3oEiGzS24A0cBIEiGxOYmgqpvQIENmktwFp4CQI/B8z3f4EmFO1ZAAAAABJRU5ErkJggg==;rotation=-60;" vertex="1" parent="1">
          <mxGeometry x="350" y="160" width="80.37" height="40" as="geometry" />
        </mxCell>
        <mxCell id="84sB6DKWZIwG1NnqUY4s-61" value="Start game" style="text;strokeColor=none;align=center;fillColor=none;html=1;verticalAlign=middle;whiteSpace=wrap;rounded=0;" vertex="1" parent="1">
          <mxGeometry x="395" y="165" width="105" height="30" as="geometry" />
        </mxCell>
      </root>
    </mxGraphModel>
  </diagram>
</mxfile>
